<svg xmlns="http://www.w3.org/2000/svg" viewBox="0 0 500 500"><g id="freepik--background-simple--inject-3"><g><path d="M475.79,304.46c-13.49,40.9-42.56,85.72-85.35,100.32-64.64,22.05-70.42,75.07-187.74,74.71-18.29-.05-35.27-1.97-50.94-5.47-8.42-1.88-16.47-4.23-24.12-7-69.5-25.07-107.55-84.69-112.98-148.4-7.16-83.79,49.87-126.07,87.03-150.97,37.16-24.9,79.53-117.45,194.87-118,17.58-.08,35.2,1.65,52.36,5.59,39.16,8.99,79.46,30.67,103.66,63.7,1.82,2.48,3.56,5.03,5.23,7.62,32.65,50.8,36.37,122.14,17.97,177.9Z" style="fill:#407BFF;"></path><path d="M475.79,304.46c-13.49,40.9-42.56,85.72-85.35,100.32-64.64,22.05-70.42,75.07-187.74,74.71-18.29-.05-35.27-1.97-50.94-5.47-8.42-1.88-16.47-4.23-24.12-7-69.5-25.07-107.55-84.69-112.98-148.4-7.16-83.79,49.87-126.07,87.03-150.97,37.16-24.9,79.53-117.45,194.87-118,17.58-.08,35.2,1.65,52.36,5.59,39.16,8.99,79.46,30.67,103.66,63.7,1.82,2.48,3.56,5.03,5.23,7.62,32.65,50.8,36.37,122.14,17.97,177.9Z" style="fill:#fff; opacity:.7;"></path></g></g><g id="freepik--Floor--inject-3"><line x1="31.6" y1="434.96" x2="473.29" y2="434.96" style="fill:none; stroke:#263238; stroke-linecap:round; stroke-linejoin:round;"></line></g><g id="freepik--Plants--inject-3"><g style="opacity:.15;"><path d="M305.02,82c4.61,3.1,16.9,5.06,16.91,5.06,.13,.02-1.17-8.49-1.31-9.02-1.66-6.11-8.46-16.94-15.54-17.26-5.1-.24-8.78,4.24-8.51,9.14,.27,5,4.54,9.45,8.46,12.09Z"></path><path d="M341.02,235.81c0,.29,0,.56,0,.84l4.25,2.66c0-1.15-.02-2.32-.04-3.52-.05-3.41-.16-7.05-.32-10.79,.87-.17,5.84-1.2,10.36-2.74,2.86,4.52,11.19,10.71,12.26,11.5-1.8,2.83-3.58,5.57-5.31,8.13-1.18,1.76-2.33,3.45-3.45,5.06l4.63,.84c.77-1.17,1.54-2.36,2.34-3.6,1.84-2.87,3.76-5.97,5.69-9.18,1.26,.51,11.6,4.65,16.81,4.44,4.72-.2,10.69-1.76,13.54-5.88,2.79-4.03,2-9.77-2.47-12.24-6.2-3.43-17.67,2.24-22.28,6.58-.27,.26-2.91,3.36-4.55,5.35,.78-1.31,1.56-2.58,2.35-3.94,1.58-2.68,3.08-5.41,4.7-8.33,.73-1.44,1.47-2.9,2.22-4.36,.77-1.44,1.41-3.06,2.12-4.6,1.59-3.61,3.02-7.35,4.38-11.14,2.35,1.38,10.78,6.15,15.5,6.67,4.7,.52,10.83-.12,14.27-3.76,3.37-3.56,3.46-9.35-.59-12.47-5.62-4.33-17.8-.46-23.02,3.13-.33,.22-3.78,3.22-5.64,4.9,.8-2.29,1.61-4.57,2.34-6.91,2.12-6.76,4.06-13.67,6.02-20.55,.6-2.11,1.22-4.2,1.84-6.3,.83,.5,10.72,6.39,16.01,6.97,4.7,.52,10.83-.12,14.27-3.76,3.37-3.56,3.46-9.35-.59-12.47-5.62-4.33-17.8-.46-23.02,3.12-.39,.27-5.36,4.59-6.56,5.75,1.36-4.62,2.75-9.21,4.31-13.68,2.14-6.17,4.59-12.11,7.38-17.69,.39,.23,10.69,6.43,16.1,7.03,4.7,.52,10.83-.12,14.27-3.76,3.37-3.56,3.46-9.35-.59-12.47-5.62-4.33-17.8-.46-23.02,3.12-.41,.28-5.75,4.93-6.65,5.84,.17-.33,.3-.69,.47-1.02,3.06-5.92,6.76-11.26,10.48-16.1,2.15-2.81,4.37-5.38,6.58-7.84,1.8,1.35,10.09,7.43,14.91,8.51,4.61,1.03,10.78,1.07,14.6-2.17,3.74-3.17,4.46-8.92,.78-12.46-5.11-4.92-17.64-2.41-23.22,.58-.3,.16-3.2,2.16-5.3,3.64,1.01-1.09,2.04-2.24,3.03-3.26,3.72-3.86,7.36-7.17,10.61-10.07,1.86-1.63,3.58-3.08,5.2-4.41,2.46,.4,12.38,1.91,17.06,.67,4.57-1.21,10.06-4.02,11.96-8.65,1.86-4.54-.15-9.97-5.05-11.42-6.8-2.01-16.77,5.99-20.34,11.21-.31,.45-4.32,8.07-4.2,8.09l.15,.03c-1.59,1.25-3.27,2.61-5.08,4.13-3.32,2.84-7.05,6.07-10.86,9.87-3.83,3.78-7.87,8-11.74,12.83-3.88,4.83-7.71,10.12-10.96,16.07-.04,.07-.07,.14-.1,.21,.41-2.04,1.36-7.77,1.38-8.22,.33-6.32-2.76-18.73-9.39-21.25-4.77-1.81-9.66,1.29-10.94,6.03-1.3,4.83,1.36,10.39,4.27,14.13,3.27,4.21,13.52,9.57,14.33,10-3.04,5.7-5.7,11.79-8.05,18.11-1.35,3.61-2.59,7.29-3.79,10.99,.3-1.77,.55-3.36,.56-3.58,.33-6.32-2.76-18.73-9.39-21.25-4.77-1.82-9.67,1.29-10.94,6.03-1.3,4.83,1.36,10.39,4.27,14.13,2.95,3.79,11.59,8.54,13.89,9.76-.45,1.43-.91,2.84-1.35,4.27-2.11,6.85-4.19,13.69-6.44,20.34-.79,2.34-1.65,4.62-2.51,6.9,.26-1.57,.47-2.9,.48-3.11,.33-6.32-2.76-18.73-9.38-21.25-4.78-1.81-9.67,1.29-10.94,6.03-1.3,4.83,1.37,10.39,4.27,14.13,2.81,3.61,10.75,8.07,13.48,9.54-.95,2.31-1.89,4.63-2.92,6.83-.73,1.48-1.33,2.96-2.15,4.41-.78,1.45-1.55,2.89-2.32,4.31-1.57,2.69-3.18,5.47-4.78,8.06-1.1,1.81-2.18,3.51-3.27,5.22,.81-2.32,2.31-6.9,2.39-7.3,.85-4.12,.61-11.11-1.45-16.38,.13-.61,.21-1.22,.22-1.85,.1-4.9-3.72-9.25-8.81-8.84-7.07,.56-13.5,11.62-14.95,17.78-.09,.36-.58,4.41-.84,6.97-.07-1.53-.12-3.01-.22-4.58-.16-3.11-.42-6.21-.68-9.54-.18-1.61-.37-3.23-.55-4.87-.15-1.63-.52-3.33-.77-5.01-.67-3.89-1.53-7.8-2.49-11.71,2.72-.15,12.38-.82,16.61-2.99,4.21-2.16,8.97-6.08,9.83-11.01,.84-4.83-2.28-9.71-7.37-10.08-7.07-.51-15.1,9.44-17.48,15.31-.15,.37-1.38,4.77-2,7.2-.6-2.35-1.18-4.7-1.86-7.06-1.96-6.81-4.15-13.64-6.32-20.46-.66-2.09-1.3-4.18-1.94-6.27,.97-.04,12.47-.59,17.2-3.02,4.21-2.16,8.97-6.08,9.83-11.01,.85-4.83-2.28-9.71-7.37-10.08-7.07-.51-15.1,9.43-17.48,15.3-.18,.44-1.94,6.78-2.3,8.41-1.42-4.6-2.79-9.2-3.95-13.79-1.62-6.33-2.85-12.63-3.6-18.82,.45-.02,12.46-.54,17.31-3.02,4.21-2.16,8.97-6.08,9.83-11.01,.85-4.83-2.28-9.71-7.37-10.08-7.07-.51-15.1,9.44-17.47,15.3-.19,.46-2.07,7.28-2.33,8.54-.04-.37-.13-.74-.17-1.11-.71-6.62-.57-13.13-.14-19.21,.24-3.53,.67-6.9,1.17-10.16,2.25,.13,12.52,.63,17.13-1.13,4.42-1.68,9.58-5.06,10.98-9.86,1.37-4.71-1.2-9.9-6.22-10.83-6.97-1.29-16.05,7.72-19.05,13.29-.16,.3-1.48,3.57-2.41,5.96,.24-1.47,.47-2.99,.73-4.4,.97-5.27,2.19-10.04,3.3-14.25,.65-2.39,1.29-4.54,1.9-6.54,2.27-1.02,11.38-5.24,14.6-8.86,3.15-3.53,6.17-8.9,5.2-13.81-.95-4.81-5.63-8.23-10.51-6.74-6.78,2.07-10.69,14.25-10.78,20.58,0,.55,.85,9.12,.97,9.07,0,0,.11-.05,.14-.06-.63,1.92-1.29,3.98-1.96,6.25-1.21,4.2-2.53,8.95-3.62,14.22-1.1,5.27-2.15,11.02-2.71,17.18-.57,6.17-.85,12.69-.28,19.45,0,.08,.02,.16,.03,.23-.78-1.92-3.15-7.23-3.38-7.62-3.22-5.45-12.63-14.1-19.55-12.55-4.98,1.12-7.35,6.41-5.8,11.06,1.59,4.75,6.87,7.92,11.35,9.43,5.05,1.7,16.56,.53,17.47,.43,.61,6.43,1.75,12.98,3.28,19.54,.87,3.75,1.86,7.51,2.9,11.26-.73-1.64-1.4-3.1-1.51-3.3-3.22-5.45-12.64-14.1-19.55-12.55-4.98,1.12-7.35,6.41-5.8,11.06,1.58,4.75,6.87,7.92,11.35,9.43,4.55,1.53,14.37,.73,16.97,.48,.41,1.44,.81,2.87,1.23,4.3,2.01,6.88,4.05,13.73,5.85,20.51,.63,2.39,1.17,4.77,1.71,7.14-.65-1.46-1.21-2.68-1.31-2.86-3.22-5.45-12.63-14.1-19.55-12.55-4.98,1.12-7.35,6.41-5.8,11.06,1.59,4.75,6.87,7.92,11.35,9.43,4.34,1.46,13.42,.8,16.5,.52,.48,2.45,.97,4.9,1.33,7.3,.21,1.64,.52,3.21,.64,4.87,.15,1.64,.3,3.27,.45,4.88,.17,3.11,.37,6.32,.46,9.36,.08,2.11,.12,4.13,.16,6.16-.6-2.39-1.88-7.03-2.03-7.41-2.35-5.88-10.35-15.85-17.42-15.36-5.1,.35-8.23,5.22-7.4,10.05,.85,4.93,5.59,8.87,9.79,11.04,4.63,2.39,15.72,3,17.1,3.07,.06,3.36,.08,6.63,.06,9.71Z"></path><path d="M428.36,107.29c.1,.09,3.71-7.73,3.88-8.25,1.98-6.01,2.28-18.79-3.44-22.98-4.12-3.01-9.66-1.31-12.14,2.93-2.53,4.32-1.43,10.38,.39,14.75,2.13,5.13,11.3,13.54,11.31,13.55Z"></path></g><g style="opacity:.15;"><path d="M187.56,82c-4.61,3.1-16.9,5.06-16.91,5.06-.13,.02,1.17-8.49,1.31-9.02,1.66-6.11,8.46-16.94,15.54-17.26,5.1-.24,8.78,4.24,8.51,9.14-.27,5-4.54,9.45-8.46,12.09Z"></path><path d="M151.57,235.81c0,.29,0,.56,0,.84l-4.25,2.66c0-1.15,.02-2.32,.04-3.52,.05-3.41,.16-7.05,.32-10.79-.87-.17-5.84-1.2-10.36-2.74-2.86,4.52-11.19,10.71-12.26,11.5,1.8,2.83,3.58,5.57,5.31,8.13,1.18,1.76,2.33,3.45,3.45,5.06l-4.63,.84c-.77-1.17-1.54-2.36-2.34-3.6-1.84-2.87-3.76-5.97-5.69-9.18-1.26,.51-11.6,4.65-16.81,4.44-4.72-.2-10.69-1.76-13.54-5.88-2.79-4.03-2-9.77,2.47-12.24,6.2-3.43,17.67,2.24,22.28,6.58,.27,.26,2.91,3.36,4.55,5.35-.78-1.31-1.56-2.58-2.35-3.94-1.58-2.68-3.08-5.41-4.7-8.33-.73-1.44-1.47-2.9-2.22-4.36-.77-1.44-1.41-3.06-2.12-4.6-1.59-3.61-3.02-7.35-4.38-11.14-2.35,1.38-10.78,6.15-15.5,6.67-4.7,.52-10.83-.12-14.27-3.76-3.37-3.56-3.46-9.35,.59-12.47,5.62-4.33,17.8-.46,23.02,3.13,.33,.22,3.78,3.22,5.64,4.9-.8-2.29-1.61-4.57-2.34-6.91-2.12-6.76-4.06-13.67-6.02-20.55-.6-2.11-1.22-4.2-1.84-6.3-.83,.5-10.73,6.39-16.01,6.97-4.7,.52-10.83-.12-14.27-3.76-3.37-3.56-3.46-9.35,.59-12.47,5.62-4.33,17.8-.46,23.02,3.12,.39,.27,5.36,4.59,6.56,5.75-1.36-4.62-2.75-9.21-4.31-13.68-2.14-6.17-4.59-12.11-7.38-17.69-.39,.23-10.69,6.43-16.1,7.03-4.7,.52-10.83-.12-14.27-3.76-3.37-3.56-3.46-9.35,.59-12.47,5.62-4.33,17.8-.46,23.02,3.12,.41,.28,5.75,4.93,6.65,5.84-.17-.33-.3-.69-.47-1.02-3.06-5.92-6.76-11.26-10.48-16.1-2.15-2.81-4.37-5.38-6.58-7.84-1.8,1.35-10.09,7.43-14.91,8.51-4.61,1.03-10.78,1.07-14.6-2.17-3.74-3.17-4.46-8.92-.78-12.46,5.11-4.92,17.64-2.41,23.22,.58,.3,.16,3.2,2.16,5.3,3.64-1.01-1.09-2.04-2.24-3.03-3.26-3.72-3.86-7.36-7.17-10.61-10.07-1.86-1.63-3.58-3.08-5.2-4.41-2.46,.4-12.38,1.91-17.06,.67-4.57-1.21-10.06-4.02-11.96-8.65-1.86-4.54,.15-9.97,5.05-11.42,6.8-2.01,16.77,5.99,20.34,11.21,.31,.45,4.32,8.07,4.2,8.09l-.15,.03c1.59,1.25,3.27,2.61,5.08,4.13,3.32,2.84,7.05,6.07,10.86,9.87,3.83,3.78,7.87,8,11.74,12.83,3.88,4.83,7.71,10.12,10.96,16.07,.04,.07,.07,.14,.1,.21-.41-2.04-1.36-7.77-1.38-8.22-.33-6.32,2.76-18.73,9.39-21.25,4.77-1.81,9.66,1.29,10.94,6.03,1.3,4.83-1.36,10.39-4.27,14.13-3.27,4.21-13.52,9.57-14.33,10,3.04,5.7,5.7,11.79,8.05,18.11,1.35,3.61,2.59,7.29,3.79,10.99-.3-1.77-.55-3.36-.56-3.58-.33-6.32,2.76-18.73,9.39-21.25,4.77-1.82,9.67,1.29,10.94,6.03,1.3,4.83-1.36,10.39-4.27,14.13-2.95,3.79-11.59,8.54-13.89,9.76,.45,1.43,.91,2.84,1.35,4.27,2.11,6.85,4.19,13.69,6.44,20.34,.79,2.34,1.65,4.62,2.51,6.9-.26-1.57-.47-2.9-.48-3.11-.33-6.32,2.76-18.73,9.38-21.25,4.78-1.81,9.67,1.29,10.94,6.03,1.3,4.83-1.37,10.39-4.27,14.13-2.81,3.61-10.75,8.07-13.48,9.54,.95,2.31,1.89,4.63,2.92,6.83,.73,1.48,1.33,2.96,2.15,4.41,.78,1.45,1.55,2.89,2.32,4.31,1.57,2.69,3.18,5.47,4.78,8.06,1.1,1.81,2.18,3.51,3.27,5.22-.81-2.32-2.31-6.9-2.39-7.3-.85-4.12-.61-11.11,1.45-16.38-.13-.61-.21-1.22-.22-1.85-.1-4.9,3.72-9.25,8.81-8.84,7.07,.56,13.5,11.62,14.95,17.78,.09,.36,.58,4.41,.84,6.97,.07-1.53,.12-3.01,.22-4.58,.16-3.11,.42-6.21,.68-9.54,.18-1.61,.37-3.23,.55-4.87,.15-1.63,.52-3.33,.77-5.01,.67-3.89,1.53-7.8,2.49-11.71-2.72-.15-12.38-.82-16.61-2.99-4.21-2.16-8.97-6.08-9.83-11.01-.84-4.83,2.28-9.71,7.37-10.08,7.07-.51,15.1,9.44,17.48,15.31,.15,.37,1.38,4.77,2,7.2,.6-2.35,1.18-4.7,1.86-7.06,1.96-6.81,4.15-13.64,6.32-20.46,.66-2.09,1.3-4.18,1.94-6.27-.97-.04-12.47-.59-17.2-3.02-4.21-2.16-8.97-6.08-9.83-11.01-.85-4.83,2.28-9.71,7.37-10.08,7.07-.51,15.1,9.43,17.48,15.3,.18,.44,1.94,6.78,2.3,8.41,1.42-4.6,2.79-9.2,3.95-13.79,1.62-6.33,2.85-12.63,3.6-18.82-.45-.02-12.46-.54-17.31-3.02-4.21-2.16-8.97-6.08-9.83-11.01-.85-4.83,2.28-9.71,7.37-10.08,7.07-.51,15.1,9.44,17.47,15.3,.19,.46,2.07,7.28,2.33,8.54,.04-.37,.13-.74,.17-1.11,.71-6.62,.57-13.13,.14-19.21-.24-3.53-.67-6.9-1.17-10.16-2.25,.13-12.52,.63-17.13-1.13-4.42-1.68-9.58-5.06-10.98-9.86-1.37-4.71,1.2-9.9,6.22-10.83,6.97-1.29,16.05,7.72,19.05,13.29,.16,.3,1.48,3.57,2.41,5.96-.24-1.47-.47-2.99-.73-4.4-.97-5.27-2.19-10.04-3.3-14.25-.65-2.39-1.29-4.54-1.9-6.54-2.27-1.02-11.38-5.24-14.6-8.86-3.15-3.53-6.17-8.9-5.2-13.81,.95-4.81,5.63-8.23,10.51-6.74,6.78,2.07,10.69,14.25,10.78,20.58,0,.55-.85,9.12-.97,9.07,0,0-.11-.05-.14-.06,.63,1.92,1.29,3.98,1.96,6.25,1.21,4.2,2.53,8.95,3.62,14.22,1.1,5.27,2.15,11.02,2.71,17.18,.57,6.17,.85,12.69,.28,19.45,0,.08-.02,.16-.03,.23,.78-1.92,3.15-7.23,3.38-7.62,3.22-5.45,12.63-14.1,19.55-12.55,4.98,1.12,7.35,6.41,5.8,11.06-1.59,4.75-6.87,7.92-11.35,9.43-5.05,1.7-16.56,.53-17.47,.43-.61,6.43-1.75,12.98-3.28,19.54-.87,3.75-1.86,7.51-2.9,11.26,.73-1.64,1.4-3.1,1.51-3.3,3.22-5.45,12.64-14.1,19.55-12.55,4.98,1.12,7.35,6.41,5.8,11.06-1.58,4.75-6.87,7.92-11.35,9.43-4.55,1.53-14.37,.73-16.97,.48-.41,1.44-.81,2.87-1.23,4.3-2.01,6.88-4.05,13.73-5.85,20.51-.63,2.39-1.17,4.77-1.71,7.14,.65-1.46,1.21-2.68,1.31-2.86,3.22-5.45,12.63-14.1,19.55-12.55,4.98,1.12,7.35,6.41,5.8,11.06-1.59,4.75-6.87,7.92-11.35,9.43-4.34,1.46-13.42,.8-16.5,.52-.48,2.45-.97,4.9-1.33,7.3-.21,1.64-.52,3.21-.64,4.87-.15,1.64-.3,3.27-.45,4.88-.17,3.11-.37,6.32-.46,9.36-.08,2.11-.12,4.13-.16,6.16,.6-2.39,1.88-7.03,2.03-7.41,2.35-5.88,10.35-15.85,17.42-15.36,5.1,.35,8.23,5.22,7.4,10.05-.85,4.93-5.59,8.87-9.79,11.04-4.63,2.39-15.72,3-17.1,3.07-.06,3.36-.08,6.63-.06,9.71Z"></path><path d="M64.23,107.29c-.1,.09-3.71-7.73-3.88-8.25-1.98-6.01-2.28-18.79,3.44-22.98,4.12-3.01,9.66-1.31,12.14,2.93,2.53,4.32,1.43,10.38-.39,14.75-2.13,5.13-11.3,13.54-11.31,13.55Z"></path></g></g><g id="freepik--Device--inject-3"><g><rect x="105.51" y="78.36" width="280.72" height="371.6" rx="10.21" ry="10.21" style="fill:#263238;"></rect><rect x="123.13" y="101.69" width="245.46" height="324.93" style="fill:#fff; stroke:#263238; stroke-linecap:round; stroke-linejoin:round;"></rect><g><rect x="132.11" y="337.59" width="228.6" height="10.53" style="fill:#407BFF;"></rect><line x1="132.11" y1="348.12" x2="359.8" y2="348.12" style="fill:none; stroke:#263238; stroke-linecap:round; stroke-linejoin:round;"></line><line x1="132.61" y1="337.5" x2="360.22" y2="337.5" style="fill:none; stroke:#263238; stroke-linecap:round; stroke-linejoin:round;"></line><line x1="360.22" y1="320.54" x2="132.61" y2="320.54" style="fill:none; stroke:#263238; stroke-linecap:round; stroke-linejoin:round;"></line><line x1="360.22" y1="363.89" x2="132.61" y2="363.89" style="fill:none; stroke:#263238; stroke-linecap:round; stroke-linejoin:round;"></line><line x1="360.22" y1="384.21" x2="132.61" y2="384.21" style="fill:none; stroke:#263238; stroke-linecap:round; stroke-linejoin:round;"></line><rect x="132.11" y="242.45" width="228.6" height="10.53" style="fill:#407BFF;"></rect><rect x="132.11" y="183.78" width="228.6" height="10.53" style="fill:#407BFF;"></rect><rect x="132.11" y="183.78" width="228.3" height="222.42" style="fill:none; stroke:#263238; stroke-linecap:round; stroke-linejoin:round;"></rect><line x1="132.11" y1="194.32" x2="359.8" y2="194.32" style="fill:none; stroke:#263238; stroke-linecap:round; stroke-linejoin:round;"></line><line x1="132.11" y1="252.98" x2="359.8" y2="252.98" style="fill:none; stroke:#263238; stroke-linecap:round; stroke-linejoin:round;"></line><line x1="132.61" y1="212.12" x2="360.22" y2="212.12" style="fill:none; stroke:#263238; stroke-linecap:round; stroke-linejoin:round;"></line><line x1="241.58" y1="211.7" x2="241.58" y2="194.75" style="fill:none; stroke:#263238; stroke-linecap:round; stroke-linejoin:round;"></line><line x1="132.61" y1="228.41" x2="360.22" y2="228.41" style="fill:none; stroke:#263238; stroke-linecap:round; stroke-linejoin:round;"></line><line x1="132.61" y1="242.36" x2="360.22" y2="242.36" style="fill:none; stroke:#263238; stroke-linecap:round; stroke-linejoin:round;"></line><g><line x1="196.18" y1="227.98" x2="196.18" y2="212.42" style="fill:none; stroke:#263238; stroke-linecap:round; stroke-linejoin:round;"></line><line x1="208.31" y1="227.98" x2="208.31" y2="212.42" style="fill:none; stroke:#263238; stroke-linecap:round; stroke-linejoin:round;"></line><line x1="220.44" y1="227.98" x2="220.44" y2="212.42" style="fill:none; stroke:#263238; stroke-linecap:round; stroke-linejoin:round;"></line><line x1="340.33" y1="227.98" x2="340.33" y2="212.42" style="fill:none; stroke:#263238; stroke-linecap:round; stroke-linejoin:round;"></line></g><line x1="305.97" y1="211.7" x2="305.97" y2="194.75" style="fill:none; stroke:#263238; stroke-linecap:round; stroke-linejoin:round;"></line><line x1="360.22" y1="270.51" x2="132.61" y2="270.51" style="fill:none; stroke:#263238; stroke-linecap:round; stroke-linejoin:round;"></line><line x1="251.25" y1="270.09" x2="251.25" y2="253.14" style="fill:none; stroke:#263238; stroke-linecap:round; stroke-linejoin:round;"></line><line x1="269.59" y1="336.98" x2="269.59" y2="320.03" style="fill:none; stroke:#263238; stroke-linecap:round; stroke-linejoin:round;"></line><line x1="360.22" y1="286.79" x2="132.61" y2="286.79" style="fill:none; stroke:#263238; stroke-linecap:round; stroke-linejoin:round;"></line><line x1="360.22" y1="303.67" x2="132.61" y2="303.67" style="fill:none; stroke:#263238; stroke-linecap:round; stroke-linejoin:round;"></line><g><line x1="296.65" y1="286.37" x2="296.65" y2="270.81" style="fill:none; stroke:#263238; stroke-linecap:round; stroke-linejoin:round;"></line><line x1="284.52" y1="286.37" x2="284.52" y2="270.81" style="fill:none; stroke:#263238; stroke-linecap:round; stroke-linejoin:round;"></line><line x1="272.39" y1="286.37" x2="272.39" y2="270.81" style="fill:none; stroke:#263238; stroke-linecap:round; stroke-linejoin:round;"></line><line x1="152.5" y1="286.37" x2="152.5" y2="270.81" style="fill:none; stroke:#263238; stroke-linecap:round; stroke-linejoin:round;"></line></g><g><line x1="249.48" y1="320.44" x2="249.48" y2="303.32" style="fill:none; stroke:#263238; stroke-linecap:round; stroke-linejoin:round;"></line><line x1="237.35" y1="320.44" x2="237.35" y2="303.32" style="fill:none; stroke:#263238; stroke-linecap:round; stroke-linejoin:round;"></line><line x1="225.23" y1="320.44" x2="225.23" y2="303.32" style="fill:none; stroke:#263238; stroke-linecap:round; stroke-linejoin:round;"></line><line x1="146.67" y1="320.44" x2="146.67" y2="303.32" style="fill:none; stroke:#263238; stroke-linecap:round; stroke-linejoin:round;"></line></g><line x1="186.86" y1="270.09" x2="186.86" y2="253.14" style="fill:none; stroke:#263238; stroke-linecap:round; stroke-linejoin:round;"></line></g><rect x="123.13" y="101.69" width="245.46" height="73.16" style="fill:#407BFF; stroke:#263238; stroke-linecap:round; stroke-linejoin:round;"></rect><g><polygon points="105.51 135.32 105.51 239.29 266.44 78.36 162.47 78.36 105.51 135.32" style="fill:#fff; opacity:.2;"></polygon><path d="M386.22,90.69v-3.26c0-5.01-4.06-9.07-9.07-9.07h-5.12L105.51,344.88v26.52L386.22,90.69Z" style="fill:#fff; opacity:.2;"></path><polygon points="386.22 430.93 386.22 326.96 263.23 449.95 367.19 449.95 386.22 430.93" style="fill:#fff; opacity:.2;"></polygon></g></g></g><g id="freepik--Money--inject-3"><g><g><g><polygon points="243.24 449.38 320.77 460.8 347.91 294.88 270.38 283.47 243.24 449.38" style="fill:#263238; stroke:#263238; stroke-miterlimit:10;"></polygon><polygon points="235.09 448.36 312.62 459.78 339.76 293.86 262.23 282.44 235.09 448.36" style="fill:#407BFF; stroke:#263238; stroke-miterlimit:10;"></polygon><path d="M266.92,302.74c5.17,.76,9.97-2.81,10.73-7.98,.06-.39,.08-.78,.09-1.17l44.52,6.56c-.1,.37-.19,.75-.25,1.15-.76,5.17,2.81,9.97,7.98,10.73,.2,.03,.39,.04,.58,.06l-21.49,127.6c-.19-.04-.38-.09-.57-.11-5.17-.76-9.97,2.81-10.73,7.98-.06,.39-.08,.78-.09,1.17l-44.52-6.56c.1-.37,.19-.75,.25-1.15,.76-5.17-2.81-9.97-7.98-10.73-.39-.06-.78-.08-1.17-.09l21.51-127.7c.37,.1,.75,.19,1.15,.25Zm19.52,81.18c8.47,1.25,16.34-4.61,17.59-13.08,1.25-8.47-4.61-16.34-13.07-17.59-8.47-1.25-16.34,4.61-17.59,13.07-1.25,8.47,4.61,16.34,13.07,17.59Z" style="fill:#fff; stroke:#263238; stroke-miterlimit:10;"></path></g><g><polygon points="336.72 364.21 258.58 353.06 255.28 373.25 333.47 384.57 336.72 364.21" style="fill:#b0b0b0; stroke:#263238; stroke-linecap:round; stroke-linejoin:round;"></polygon><polygon points="327.79 363.13 250.39 352.14 247.09 372.32 324.53 383.48 327.79 363.13" style="fill:#fff; stroke:#263238; stroke-linecap:round; stroke-linejoin:round;"></polygon></g></g><g><g><polygon points="243.07 463.06 321.44 462.73 323.41 294.62 245.04 294.95 243.07 463.06" style="fill:#263238; stroke:#263238; stroke-miterlimit:10;"></polygon><polygon points="234.86 463.27 313.23 462.94 315.2 294.83 236.83 295.16 234.86 463.27" style="fill:#407BFF; stroke:#263238; stroke-miterlimit:10;"></polygon><path d="M244.51,314.53c5.22-.02,9.44-4.27,9.41-9.49,0-.4-.04-.79-.08-1.17l45-.19c-.05,.38-.08,.77-.07,1.17,.02,5.22,4.27,9.44,9.49,9.42,.2,0,.39-.02,.58-.03l-2.13,129.38c-.19-.01-.39-.03-.58-.03-5.22,.02-9.44,4.27-9.42,9.49,0,.4,.04,.79,.08,1.17l-45,.19c.05-.38,.08-.77,.07-1.17-.02-5.22-4.27-9.44-9.49-9.42-.4,0-.79,.04-1.17,.08l2.13-129.48c.38,.05,.77,.08,1.17,.07Zm31.46,77.34c8.56-.04,15.47-7,15.43-15.56-.04-8.56-7-15.47-15.56-15.43-8.56,.04-15.47,7-15.43,15.56,.04,8.56,7,15.47,15.56,15.43Z" style="fill:#fff; stroke:#263238; stroke-miterlimit:10;"></path></g><g><polygon points="322.74 364.85 243.8 365.53 243.56 385.98 322.57 385.46 322.74 364.85" style="fill:#b0b0b0; stroke:#263238; stroke-linecap:round; stroke-linejoin:round;"></polygon><polygon points="313.74 365.11 235.56 365.84 235.33 386.29 313.57 385.73 313.74 365.11" style="fill:#fff; stroke:#263238; stroke-linecap:round; stroke-linejoin:round;"></polygon></g></g><g><g><g><path d="M215.27,454.24l-.11,6.6c-.01,.81,11.8,1.66,26.4,1.9,14.59,.24,26.43-.23,26.44-1.04l.11-6.6-52.84-.86Z" style="fill:#fff; stroke:#263238; stroke-linecap:round; stroke-linejoin:round;"></path><path d="M268.11,455.1c-.01,.81-11.85,1.27-26.44,1.04-14.59-.24-26.41-1.09-26.4-1.9,.01-.81,11.85-1.27,26.44-1.04,14.59,.24,26.41,1.09,26.4,1.9Z" style="fill:#fff; stroke:#263238; stroke-linecap:round; stroke-linejoin:round;"></path><path d="M261.99,454.82c0,.52-9.1,.79-20.31,.61-11.21-.18-20.29-.75-20.28-1.27,0-.52,9.1-.79,20.31-.61,11.21,.18,20.29,.75,20.28,1.27Z" style="fill:#fff; stroke:#263238; stroke-linecap:round; stroke-linejoin:round;"></path><line x1="265.46" y1="455.81" x2="265.38" y2="460.93" style="fill:none; stroke:#263238; stroke-linecap:round; stroke-linejoin:round;"></line><line x1="261.68" y1="456.29" x2="261.59" y2="461.68" style="fill:none; stroke:#263238; stroke-linecap:round; stroke-linejoin:round;"></line><line x1="256.02" y1="456.33" x2="255.95" y2="460.51" style="fill:none; stroke:#263238; stroke-linecap:round; stroke-linejoin:round;"></line><line x1="248.56" y1="458.91" x2="248.5" y2="462.54" style="fill:none; stroke:#263238; stroke-linecap:round; stroke-linejoin:round;"></line><line x1="240.54" y1="462.82" x2="240.62" y2="458.24" style="fill:none; stroke:#263238; stroke-linecap:round; stroke-linejoin:round;"></line><line x1="216.94" y1="455.02" x2="216.91" y2="457.31" style="fill:none; stroke:#263238; stroke-linecap:round; stroke-linejoin:round;"></line><line x1="219.94" y1="461.54" x2="219.98" y2="458.84" style="fill:none; stroke:#263238; stroke-linecap:round; stroke-linejoin:round;"></line><line x1="232.2" y1="462.01" x2="232.25" y2="458.77" style="fill:none; stroke:#263238; stroke-linecap:round; stroke-linejoin:round;"></line></g><g><path d="M214.64,447.66l-.11,6.6c-.01,.81,11.8,1.66,26.4,1.9,14.59,.24,26.43-.23,26.44-1.04l.11-6.6-52.84-.86Z" style="fill:#fff; stroke:#263238; stroke-linecap:round; stroke-linejoin:round;"></path><path d="M267.48,448.52c-.01,.81-11.85,1.27-26.44,1.04-14.59-.24-26.41-1.09-26.4-1.9,.01-.81,11.85-1.27,26.44-1.04,14.59,.24,26.41,1.09,26.4,1.9Z" style="fill:#fff; stroke:#263238; stroke-linecap:round; stroke-linejoin:round;"></path><path d="M261.35,448.24c0,.52-9.1,.79-20.31,.61-11.21-.18-20.29-.75-20.28-1.27,0-.52,9.1-.79,20.31-.61,11.21,.18,20.29,.75,20.28,1.27Z" style="fill:#fff; stroke:#263238; stroke-linecap:round; stroke-linejoin:round;"></path><line x1="264.83" y1="449.23" x2="264.75" y2="454.36" style="fill:none; stroke:#263238; stroke-linecap:round; stroke-linejoin:round;"></line><line x1="261.05" y1="449.71" x2="260.96" y2="455.1" style="fill:none; stroke:#263238; stroke-linecap:round; stroke-linejoin:round;"></line><line x1="255.38" y1="449.75" x2="255.32" y2="453.93" style="fill:none; stroke:#263238; stroke-linecap:round; stroke-linejoin:round;"></line><line x1="247.93" y1="452.33" x2="247.87" y2="455.97" style="fill:none; stroke:#263238; stroke-linecap:round; stroke-linejoin:round;"></line><line x1="239.91" y1="456.24" x2="239.99" y2="451.66" style="fill:none; stroke:#263238; stroke-linecap:round; stroke-linejoin:round;"></line><line x1="216.31" y1="448.44" x2="216.27" y2="450.73" style="fill:none; stroke:#263238; stroke-linecap:round; stroke-linejoin:round;"></line><line x1="219.31" y1="454.96" x2="219.35" y2="452.27" style="fill:none; stroke:#263238; stroke-linecap:round; stroke-linejoin:round;"></line><line x1="231.57" y1="455.43" x2="231.62" y2="452.2" style="fill:none; stroke:#263238; stroke-linecap:round; stroke-linejoin:round;"></line></g><g><path d="M214.74,441.04l-.11,6.6c-.01,.81,11.8,1.66,26.4,1.9,14.59,.24,26.43-.23,26.44-1.04l.11-6.6-52.84-.86Z" style="fill:#fff; stroke:#263238; stroke-linecap:round; stroke-linejoin:round;"></path><path d="M267.58,441.91c-.01,.81-11.85,1.27-26.44,1.04-14.59-.24-26.41-1.09-26.4-1.9,.01-.81,11.85-1.27,26.44-1.04,14.59,.24,26.41,1.09,26.4,1.9Z" style="fill:#fff; stroke:#263238; stroke-linecap:round; stroke-linejoin:round;"></path><path d="M261.46,441.62c0,.52-9.1,.79-20.31,.61-11.21-.18-20.29-.75-20.28-1.27,0-.52,9.1-.79,20.31-.61,11.21,.18,20.29,.75,20.28,1.27Z" style="fill:#fff; stroke:#263238; stroke-linecap:round; stroke-linejoin:round;"></path><line x1="264.94" y1="442.62" x2="264.85" y2="447.74" style="fill:none; stroke:#263238; stroke-linecap:round; stroke-linejoin:round;"></line><line x1="261.16" y1="443.1" x2="261.07" y2="448.49" style="fill:none; stroke:#263238; stroke-linecap:round; stroke-linejoin:round;"></line><line x1="255.49" y1="443.14" x2="255.42" y2="447.32" style="fill:none; stroke:#263238; stroke-linecap:round; stroke-linejoin:round;"></line><line x1="248.04" y1="445.71" x2="247.98" y2="449.35" style="fill:none; stroke:#263238; stroke-linecap:round; stroke-linejoin:round;"></line><line x1="240.02" y1="449.63" x2="240.09" y2="445.04" style="fill:none; stroke:#263238; stroke-linecap:round; stroke-linejoin:round;"></line><line x1="216.42" y1="441.83" x2="216.38" y2="444.12" style="fill:none; stroke:#263238; stroke-linecap:round; stroke-linejoin:round;"></line><line x1="219.41" y1="448.34" x2="219.46" y2="445.65" style="fill:none; stroke:#263238; stroke-linecap:round; stroke-linejoin:round;"></line><line x1="231.67" y1="448.81" x2="231.73" y2="445.58" style="fill:none; stroke:#263238; stroke-linecap:round; stroke-linejoin:round;"></line></g><g><path d="M216.05,434.45l-.11,6.6c-.01,.81,11.8,1.66,26.4,1.9,14.59,.24,26.43-.23,26.44-1.04l.11-6.6-52.84-.86Z" style="fill:#fff; stroke:#263238; stroke-linecap:round; stroke-linejoin:round;"></path><path d="M268.89,435.32c-.01,.81-11.85,1.27-26.44,1.04s-26.41-1.09-26.4-1.9c.01-.81,11.85-1.27,26.44-1.04,14.59,.24,26.41,1.09,26.4,1.9Z" style="fill:#fff; stroke:#263238; stroke-linecap:round; stroke-linejoin:round;"></path><path d="M262.77,435.03c0,.52-9.1,.79-20.31,.61-11.21-.18-20.29-.75-20.28-1.27,0-.52,9.1-.79,20.31-.61,11.21,.18,20.29,.75,20.28,1.27Z" style="fill:#fff; stroke:#263238; stroke-linecap:round; stroke-linejoin:round;"></path><line x1="266.25" y1="436.02" x2="266.16" y2="441.15" style="fill:none; stroke:#263238; stroke-linecap:round; stroke-linejoin:round;"></line><line x1="262.47" y1="436.5" x2="262.38" y2="441.89" style="fill:none; stroke:#263238; stroke-linecap:round; stroke-linejoin:round;"></line><line x1="256.8" y1="436.54" x2="256.73" y2="440.72" style="fill:none; stroke:#263238; stroke-linecap:round; stroke-linejoin:round;"></line><line x1="249.35" y1="439.12" x2="249.29" y2="442.76" style="fill:none; stroke:#263238; stroke-linecap:round; stroke-linejoin:round;"></line><line x1="241.33" y1="443.03" x2="241.4" y2="438.45" style="fill:none; stroke:#263238; stroke-linecap:round; stroke-linejoin:round;"></line><line x1="217.73" y1="435.23" x2="217.69" y2="437.52" style="fill:none; stroke:#263238; stroke-linecap:round; stroke-linejoin:round;"></line><line x1="220.72" y1="441.75" x2="220.77" y2="439.06" style="fill:none; stroke:#263238; stroke-linecap:round; stroke-linejoin:round;"></line><line x1="232.98" y1="442.22" x2="233.04" y2="438.99" style="fill:none; stroke:#263238; stroke-linecap:round; stroke-linejoin:round;"></line></g><g><path d="M216.36,427.84l-.11,6.6c-.01,.81,11.8,1.66,26.4,1.9,14.59,.24,26.43-.23,26.44-1.04l.11-6.6-52.84-.86Z" style="fill:#fff; stroke:#263238; stroke-linecap:round; stroke-linejoin:round;"></path><path d="M269.2,428.71c-.01,.81-11.85,1.27-26.44,1.04-14.59-.24-26.41-1.09-26.4-1.9,.01-.81,11.85-1.27,26.44-1.04,14.59,.24,26.41,1.09,26.4,1.9Z" style="fill:#fff; stroke:#263238; stroke-linecap:round; stroke-linejoin:round;"></path><path d="M263.08,428.42c0,.52-9.1,.79-20.31,.61-11.21-.18-20.29-.75-20.28-1.27s9.1-.79,20.31-.61c11.21,.18,20.29,.75,20.28,1.27Z" style="fill:#fff; stroke:#263238; stroke-linecap:round; stroke-linejoin:round;"></path><line x1="266.56" y1="429.42" x2="266.47" y2="434.54" style="fill:none; stroke:#263238; stroke-linecap:round; stroke-linejoin:round;"></line><line x1="262.77" y1="429.89" x2="262.69" y2="435.28" style="fill:none; stroke:#263238; stroke-linecap:round; stroke-linejoin:round;"></line><line x1="257.11" y1="429.94" x2="257.04" y2="434.11" style="fill:none; stroke:#263238; stroke-linecap:round; stroke-linejoin:round;"></line><line x1="249.65" y1="432.51" x2="249.6" y2="436.15" style="fill:none; stroke:#263238; stroke-linecap:round; stroke-linejoin:round;"></line><line x1="241.64" y1="436.42" x2="241.71" y2="431.84" style="fill:none; stroke:#263238; stroke-linecap:round; stroke-linejoin:round;"></line><line x1="218.04" y1="428.62" x2="218" y2="430.91" style="fill:none; stroke:#263238; stroke-linecap:round; stroke-linejoin:round;"></line><line x1="221.03" y1="435.14" x2="221.08" y2="432.45" style="fill:none; stroke:#263238; stroke-linecap:round; stroke-linejoin:round;"></line><line x1="233.29" y1="435.61" x2="233.34" y2="432.38" style="fill:none; stroke:#263238; stroke-linecap:round; stroke-linejoin:round;"></line></g><g><path d="M216.27,421.23l-.11,6.6c-.01,.81,11.8,1.66,26.4,1.9,14.59,.24,26.43-.23,26.44-1.04l.11-6.6-52.84-.86Z" style="fill:#fff; stroke:#263238; stroke-linecap:round; stroke-linejoin:round;"></path><path d="M269.11,422.09c-.01,.81-11.85,1.27-26.44,1.04-14.59-.24-26.41-1.09-26.4-1.9,.01-.81,11.85-1.27,26.44-1.04,14.59,.24,26.41,1.09,26.4,1.9Z" style="fill:#fff; stroke:#263238; stroke-linecap:round; stroke-linejoin:round;"></path><path d="M262.99,421.8c0,.52-9.1,.79-20.31,.61-11.21-.18-20.29-.75-20.28-1.27,0-.52,9.1-.79,20.31-.61,11.21,.18,20.29,.75,20.28,1.27Z" style="fill:#fff; stroke:#263238; stroke-linecap:round; stroke-linejoin:round;"></path><line x1="266.46" y1="422.8" x2="266.38" y2="427.92" style="fill:none; stroke:#263238; stroke-linecap:round; stroke-linejoin:round;"></line><line x1="262.68" y1="423.28" x2="262.59" y2="428.67" style="fill:none; stroke:#263238; stroke-linecap:round; stroke-linejoin:round;"></line><line x1="257.02" y1="423.32" x2="256.95" y2="427.5" style="fill:none; stroke:#263238; stroke-linecap:round; stroke-linejoin:round;"></line><line x1="249.56" y1="425.89" x2="249.5" y2="429.53" style="fill:none; stroke:#263238; stroke-linecap:round; stroke-linejoin:round;"></line><line x1="241.54" y1="429.81" x2="241.62" y2="425.23" style="fill:none; stroke:#263238; stroke-linecap:round; stroke-linejoin:round;"></line><line x1="217.95" y1="422.01" x2="217.91" y2="424.3" style="fill:none; stroke:#263238; stroke-linecap:round; stroke-linejoin:round;"></line><line x1="220.94" y1="428.53" x2="220.98" y2="425.83" style="fill:none; stroke:#263238; stroke-linecap:round; stroke-linejoin:round;"></line><line x1="233.2" y1="429" x2="233.25" y2="425.76" style="fill:none; stroke:#263238; stroke-linecap:round; stroke-linejoin:round;"></line></g><g><path d="M216.78,414.62l-.11,6.6c-.01,.81,11.8,1.66,26.4,1.9,14.59,.24,26.43-.23,26.44-1.04l.11-6.6-52.84-.86Z" style="fill:#fff; stroke:#263238; stroke-linecap:round; stroke-linejoin:round;"></path><path d="M269.62,415.48c-.01,.81-11.85,1.27-26.44,1.04-14.59-.24-26.41-1.09-26.4-1.9,.01-.81,11.85-1.27,26.44-1.04,14.59,.24,26.41,1.09,26.4,1.9Z" style="fill:#fff; stroke:#263238; stroke-linecap:round; stroke-linejoin:round;"></path><path d="M263.5,415.2c0,.52-9.1,.79-20.31,.61-11.21-.18-20.29-.75-20.28-1.27s9.1-.79,20.31-.61c11.21,.18,20.29,.75,20.28,1.27Z" style="fill:#fff; stroke:#263238; stroke-linecap:round; stroke-linejoin:round;"></path><line x1="266.97" y1="416.19" x2="266.89" y2="421.32" style="fill:none; stroke:#263238; stroke-linecap:round; stroke-linejoin:round;"></line><line x1="263.19" y1="416.67" x2="263.1" y2="422.06" style="fill:none; stroke:#263238; stroke-linecap:round; stroke-linejoin:round;"></line><line x1="257.53" y1="416.71" x2="257.46" y2="420.89" style="fill:none; stroke:#263238; stroke-linecap:round; stroke-linejoin:round;"></line><line x1="250.07" y1="419.29" x2="250.01" y2="422.93" style="fill:none; stroke:#263238; stroke-linecap:round; stroke-linejoin:round;"></line><line x1="242.05" y1="423.2" x2="242.13" y2="418.62" style="fill:none; stroke:#263238; stroke-linecap:round; stroke-linejoin:round;"></line><line x1="218.45" y1="415.4" x2="218.42" y2="417.69" style="fill:none; stroke:#263238; stroke-linecap:round; stroke-linejoin:round;"></line><line x1="221.45" y1="421.92" x2="221.49" y2="419.23" style="fill:none; stroke:#263238; stroke-linecap:round; stroke-linejoin:round;"></line><line x1="233.71" y1="422.39" x2="233.76" y2="419.16" style="fill:none; stroke:#263238; stroke-linecap:round; stroke-linejoin:round;"></line></g><g><path d="M212.99,407.98l-.11,6.6c-.01,.81,11.8,1.66,26.4,1.9,14.59,.24,26.43-.23,26.44-1.04l.11-6.6-52.84-.86Z" style="fill:#fff; stroke:#263238; stroke-linecap:round; stroke-linejoin:round;"></path><path d="M265.83,408.85c-.01,.81-11.85,1.27-26.44,1.04-14.59-.24-26.41-1.09-26.4-1.9,.01-.81,11.85-1.27,26.44-1.04,14.59,.24,26.41,1.09,26.4,1.9Z" style="fill:#fff; stroke:#263238; stroke-linecap:round; stroke-linejoin:round;"></path><path d="M259.71,408.56c0,.52-9.1,.79-20.31,.61-11.21-.18-20.29-.75-20.28-1.27,0-.52,9.1-.79,20.31-.61,11.21,.18,20.29,.75,20.28,1.27Z" style="fill:#fff; stroke:#263238; stroke-linecap:round; stroke-linejoin:round;"></path><line x1="263.19" y1="409.56" x2="263.1" y2="414.68" style="fill:none; stroke:#263238; stroke-linecap:round; stroke-linejoin:round;"></line><line x1="259.4" y1="410.03" x2="259.32" y2="415.42" style="fill:none; stroke:#263238; stroke-linecap:round; stroke-linejoin:round;"></line><line x1="253.74" y1="410.08" x2="253.67" y2="414.25" style="fill:none; stroke:#263238; stroke-linecap:round; stroke-linejoin:round;"></line><line x1="246.28" y1="412.65" x2="246.22" y2="416.29" style="fill:none; stroke:#263238; stroke-linecap:round; stroke-linejoin:round;"></line><line x1="238.27" y1="416.56" x2="238.34" y2="411.98" style="fill:none; stroke:#263238; stroke-linecap:round; stroke-linejoin:round;"></line><line x1="214.67" y1="408.76" x2="214.63" y2="411.05" style="fill:none; stroke:#263238; stroke-linecap:round; stroke-linejoin:round;"></line><line x1="217.66" y1="415.28" x2="217.7" y2="412.59" style="fill:none; stroke:#263238; stroke-linecap:round; stroke-linejoin:round;"></line><line x1="229.92" y1="415.75" x2="229.97" y2="412.52" style="fill:none; stroke:#263238; stroke-linecap:round; stroke-linejoin:round;"></line></g><g><path d="M212.3,401.36l-.11,6.6c-.01,.81,11.8,1.66,26.4,1.9,14.59,.24,26.43-.23,26.44-1.04l.11-6.6-52.84-.86Z" style="fill:#fff; stroke:#263238; stroke-linecap:round; stroke-linejoin:round;"></path><path d="M265.14,402.22c-.01,.81-11.85,1.27-26.44,1.04-14.59-.24-26.41-1.09-26.4-1.9,.01-.81,11.85-1.27,26.44-1.04,14.59,.24,26.41,1.09,26.4,1.9Z" style="fill:#fff; stroke:#263238; stroke-linecap:round; stroke-linejoin:round;"></path><path d="M259.01,401.93c0,.52-9.1,.79-20.31,.61-11.21-.18-20.29-.75-20.28-1.27,0-.52,9.1-.79,20.31-.61,11.21,.18,20.29,.75,20.28,1.27Z" style="fill:#fff; stroke:#263238; stroke-linecap:round; stroke-linejoin:round;"></path><line x1="262.49" y1="402.93" x2="262.41" y2="408.05" style="fill:none; stroke:#263238; stroke-linecap:round; stroke-linejoin:round;"></line><line x1="258.71" y1="403.41" x2="258.62" y2="408.8" style="fill:none; stroke:#263238; stroke-linecap:round; stroke-linejoin:round;"></line><line x1="253.05" y1="403.45" x2="252.98" y2="407.63" style="fill:none; stroke:#263238; stroke-linecap:round; stroke-linejoin:round;"></line><line x1="245.59" y1="406.02" x2="245.53" y2="409.66" style="fill:none; stroke:#263238; stroke-linecap:round; stroke-linejoin:round;"></line><line x1="237.57" y1="409.94" x2="237.65" y2="405.35" style="fill:none; stroke:#263238; stroke-linecap:round; stroke-linejoin:round;"></line><line x1="213.97" y1="402.14" x2="213.94" y2="404.43" style="fill:none; stroke:#263238; stroke-linecap:round; stroke-linejoin:round;"></line><line x1="216.97" y1="408.66" x2="217.01" y2="405.96" style="fill:none; stroke:#263238; stroke-linecap:round; stroke-linejoin:round;"></line><line x1="229.23" y1="409.13" x2="229.28" y2="405.89" style="fill:none; stroke:#263238; stroke-linecap:round; stroke-linejoin:round;"></line></g><g><path d="M211,394.72l-.11,6.6c-.01,.81,11.8,1.66,26.4,1.9,14.59,.24,26.43-.23,26.44-1.04l.11-6.6-52.84-.86Z" style="fill:#fff; stroke:#263238; stroke-linecap:round; stroke-linejoin:round;"></path><path d="M263.84,395.58c-.01,.81-11.85,1.27-26.44,1.04-14.59-.24-26.41-1.09-26.4-1.9,.01-.81,11.85-1.27,26.44-1.04,14.59,.24,26.41,1.09,26.4,1.9Z" style="fill:#fff; stroke:#263238; stroke-linecap:round; stroke-linejoin:round;"></path><path d="M257.72,395.3c0,.52-9.1,.79-20.31,.61-11.21-.18-20.29-.75-20.28-1.27s9.1-.79,20.31-.61c11.21,.18,20.29,.75,20.28,1.27Z" style="fill:#fff; stroke:#263238; stroke-linecap:round; stroke-linejoin:round;"></path><line x1="261.2" y1="396.29" x2="261.11" y2="401.42" style="fill:none; stroke:#263238; stroke-linecap:round; stroke-linejoin:round;"></line><line x1="257.42" y1="396.77" x2="257.33" y2="402.16" style="fill:none; stroke:#263238; stroke-linecap:round; stroke-linejoin:round;"></line><line x1="251.75" y1="396.81" x2="251.68" y2="400.99" style="fill:none; stroke:#263238; stroke-linecap:round; stroke-linejoin:round;"></line><line x1="244.3" y1="399.39" x2="244.24" y2="403.03" style="fill:none; stroke:#263238; stroke-linecap:round; stroke-linejoin:round;"></line><line x1="236.28" y1="403.3" x2="236.35" y2="398.72" style="fill:none; stroke:#263238; stroke-linecap:round; stroke-linejoin:round;"></line><line x1="212.68" y1="395.5" x2="212.64" y2="397.79" style="fill:none; stroke:#263238; stroke-linecap:round; stroke-linejoin:round;"></line><line x1="215.67" y1="402.02" x2="215.72" y2="399.33" style="fill:none; stroke:#263238; stroke-linecap:round; stroke-linejoin:round;"></line><line x1="227.93" y1="402.49" x2="227.99" y2="399.26" style="fill:none; stroke:#263238; stroke-linecap:round; stroke-linejoin:round;"></line></g><g><path d="M215.61,388.14l-.11,6.6c-.01,.81,11.8,1.66,26.4,1.9,14.59,.24,26.43-.23,26.44-1.04l.11-6.6-52.84-.86Z" style="fill:#fff; stroke:#263238; stroke-linecap:round; stroke-linejoin:round;"></path><path d="M268.45,389.01c-.01,.81-11.85,1.27-26.44,1.04-14.59-.24-26.41-1.09-26.4-1.9,.01-.81,11.85-1.27,26.44-1.04,14.59,.24,26.41,1.09,26.4,1.9Z" style="fill:#fff; stroke:#263238; stroke-linecap:round; stroke-linejoin:round;"></path><path d="M262.32,388.72c0,.52-9.1,.79-20.31,.61-11.21-.18-20.29-.75-20.28-1.27,0-.52,9.1-.79,20.31-.61,11.21,.18,20.29,.75,20.28,1.27Z" style="fill:#fff; stroke:#263238; stroke-linecap:round; stroke-linejoin:round;"></path><line x1="265.8" y1="389.72" x2="265.72" y2="394.84" style="fill:none; stroke:#263238; stroke-linecap:round; stroke-linejoin:round;"></line><line x1="262.02" y1="390.2" x2="261.93" y2="395.59" style="fill:none; stroke:#263238; stroke-linecap:round; stroke-linejoin:round;"></line><line x1="256.36" y1="390.24" x2="256.29" y2="394.42" style="fill:none; stroke:#263238; stroke-linecap:round; stroke-linejoin:round;"></line><line x1="248.9" y1="392.81" x2="248.84" y2="396.45" style="fill:none; stroke:#263238; stroke-linecap:round; stroke-linejoin:round;"></line><line x1="240.88" y1="396.73" x2="240.96" y2="392.14" style="fill:none; stroke:#263238; stroke-linecap:round; stroke-linejoin:round;"></line><line x1="217.28" y1="388.92" x2="217.25" y2="391.22" style="fill:none; stroke:#263238; stroke-linecap:round; stroke-linejoin:round;"></line><line x1="220.28" y1="395.44" x2="220.32" y2="392.75" style="fill:none; stroke:#263238; stroke-linecap:round; stroke-linejoin:round;"></line><line x1="232.54" y1="395.91" x2="232.59" y2="392.68" style="fill:none; stroke:#263238; stroke-linecap:round; stroke-linejoin:round;"></line></g><g><path d="M213.91,381.5l-.11,6.6c-.01,.81,11.8,1.66,26.4,1.9s26.43-.23,26.44-1.04l.11-6.6-52.84-.86Z" style="fill:#fff; stroke:#263238; stroke-linecap:round; stroke-linejoin:round;"></path><path d="M266.75,382.37c-.01,.81-11.85,1.27-26.44,1.04-14.59-.24-26.41-1.09-26.4-1.9,.01-.81,11.85-1.27,26.44-1.04,14.59,.24,26.41,1.09,26.4,1.9Z" style="fill:#fff; stroke:#263238; stroke-linecap:round; stroke-linejoin:round;"></path><path d="M260.63,382.08c0,.52-9.1,.79-20.31,.61-11.21-.18-20.29-.75-20.28-1.27,0-.52,9.1-.79,20.31-.61,11.21,.18,20.29,.75,20.28,1.27Z" style="fill:#fff; stroke:#263238; stroke-linecap:round; stroke-linejoin:round;"></path><line x1="264.11" y1="383.08" x2="264.02" y2="388.2" style="fill:none; stroke:#263238; stroke-linecap:round; stroke-linejoin:round;"></line><line x1="260.32" y1="383.55" x2="260.24" y2="388.94" style="fill:none; stroke:#263238; stroke-linecap:round; stroke-linejoin:round;"></line><line x1="254.66" y1="383.6" x2="254.59" y2="387.77" style="fill:none; stroke:#263238; stroke-linecap:round; stroke-linejoin:round;"></line><line x1="247.2" y1="386.17" x2="247.15" y2="389.81" style="fill:none; stroke:#263238; stroke-linecap:round; stroke-linejoin:round;"></line><line x1="239.19" y1="390.08" x2="239.26" y2="385.5" style="fill:none; stroke:#263238; stroke-linecap:round; stroke-linejoin:round;"></line><line x1="215.59" y1="382.28" x2="215.55" y2="384.57" style="fill:none; stroke:#263238; stroke-linecap:round; stroke-linejoin:round;"></line><line x1="218.58" y1="388.8" x2="218.63" y2="386.11" style="fill:none; stroke:#263238; stroke-linecap:round; stroke-linejoin:round;"></line><line x1="230.84" y1="389.27" x2="230.9" y2="386.04" style="fill:none; stroke:#263238; stroke-linecap:round; stroke-linejoin:round;"></line></g><g><path d="M209.49,374.49l-.11,6.6c-.01,.81,11.8,1.66,26.4,1.9,14.59,.24,26.43-.23,26.44-1.04l.11-6.6-52.84-.86Z" style="fill:#fff; stroke:#263238; stroke-linecap:round; stroke-linejoin:round;"></path><path d="M262.33,375.35c-.01,.81-11.85,1.27-26.44,1.04-14.59-.24-26.41-1.09-26.4-1.9,.01-.81,11.85-1.27,26.44-1.04,14.59,.24,26.41,1.09,26.4,1.9Z" style="fill:#fff; stroke:#263238; stroke-linecap:round; stroke-linejoin:round;"></path><path d="M256.21,375.07c0,.52-9.1,.79-20.31,.61-11.21-.18-20.29-.75-20.28-1.27,0-.52,9.1-.79,20.31-.61,11.21,.18,20.29,.75,20.28,1.27Z" style="fill:#fff; stroke:#263238; stroke-linecap:round; stroke-linejoin:round;"></path><line x1="259.68" y1="376.06" x2="259.6" y2="381.18" style="fill:none; stroke:#263238; stroke-linecap:round; stroke-linejoin:round;"></line><line x1="255.9" y1="376.54" x2="255.81" y2="381.93" style="fill:none; stroke:#263238; stroke-linecap:round; stroke-linejoin:round;"></line><line x1="250.24" y1="376.58" x2="250.17" y2="380.76" style="fill:none; stroke:#263238; stroke-linecap:round; stroke-linejoin:round;"></line><line x1="242.78" y1="379.16" x2="242.72" y2="382.8" style="fill:none; stroke:#263238; stroke-linecap:round; stroke-linejoin:round;"></line><line x1="234.76" y1="383.07" x2="234.84" y2="378.49" style="fill:none; stroke:#263238; stroke-linecap:round; stroke-linejoin:round;"></line><line x1="211.16" y1="375.27" x2="211.13" y2="377.56" style="fill:none; stroke:#263238; stroke-linecap:round; stroke-linejoin:round;"></line><line x1="214.16" y1="381.79" x2="214.2" y2="379.09" style="fill:none; stroke:#263238; stroke-linecap:round; stroke-linejoin:round;"></line><line x1="226.42" y1="382.26" x2="226.47" y2="379.03" style="fill:none; stroke:#263238; stroke-linecap:round; stroke-linejoin:round;"></line></g><g><path d="M211.6,367.91l-.11,6.6c-.01,.81,11.8,1.66,26.4,1.9,14.59,.24,26.43-.23,26.44-1.04l.11-6.6-52.84-.86Z" style="fill:#fff; stroke:#263238; stroke-linecap:round; stroke-linejoin:round;"></path><path d="M264.44,368.77c-.01,.81-11.85,1.27-26.44,1.04-14.59-.24-26.41-1.09-26.4-1.9,.01-.81,11.85-1.27,26.44-1.04,14.59,.24,26.41,1.09,26.4,1.9Z" style="fill:#fff; stroke:#263238; stroke-linecap:round; stroke-linejoin:round;"></path><path d="M258.32,368.49c0,.52-9.1,.79-20.31,.61-11.21-.18-20.29-.75-20.28-1.27s9.1-.79,20.31-.61c11.21,.18,20.29,.75,20.28,1.27Z" style="fill:#fff; stroke:#263238; stroke-linecap:round; stroke-linejoin:round;"></path><line x1="261.8" y1="369.48" x2="261.71" y2="374.6" style="fill:none; stroke:#263238; stroke-linecap:round; stroke-linejoin:round;"></line><line x1="258.01" y1="369.96" x2="257.92" y2="375.35" style="fill:none; stroke:#263238; stroke-linecap:round; stroke-linejoin:round;"></line><line x1="252.35" y1="370" x2="252.28" y2="374.18" style="fill:none; stroke:#263238; stroke-linecap:round; stroke-linejoin:round;"></line><line x1="244.89" y1="372.58" x2="244.83" y2="376.22" style="fill:none; stroke:#263238; stroke-linecap:round; stroke-linejoin:round;"></line><line x1="236.88" y1="376.49" x2="236.95" y2="371.91" style="fill:none; stroke:#263238; stroke-linecap:round; stroke-linejoin:round;"></line><line x1="213.28" y1="368.69" x2="213.24" y2="370.98" style="fill:none; stroke:#263238; stroke-linecap:round; stroke-linejoin:round;"></line><line x1="216.27" y1="375.21" x2="216.31" y2="372.51" style="fill:none; stroke:#263238; stroke-linecap:round; stroke-linejoin:round;"></line><line x1="228.53" y1="375.68" x2="228.58" y2="372.45" style="fill:none; stroke:#263238; stroke-linecap:round; stroke-linejoin:round;"></line></g><g><path d="M211.7,361.71l-.11,6.6c-.01,.81,11.8,1.66,26.4,1.9,14.59,.24,26.43-.23,26.44-1.04l.11-6.6-52.84-.86Z" style="fill:#fff; stroke:#263238; stroke-linecap:round; stroke-linejoin:round;"></path><path d="M264.54,362.57c-.01,.81-11.85,1.27-26.44,1.04-14.59-.24-26.41-1.09-26.4-1.9,.01-.81,11.85-1.27,26.44-1.04,14.59,.24,26.41,1.09,26.4,1.9Z" style="fill:#fff; stroke:#263238; stroke-linecap:round; stroke-linejoin:round;"></path><path d="M258.42,362.28c0,.52-9.1,.79-20.31,.61-11.21-.18-20.29-.75-20.28-1.27,0-.52,9.1-.79,20.31-.61,11.21,.18,20.29,.75,20.28,1.27Z" style="fill:#fff; stroke:#263238; stroke-linecap:round; stroke-linejoin:round;"></path><line x1="261.9" y1="363.28" x2="261.81" y2="368.4" style="fill:none; stroke:#263238; stroke-linecap:round; stroke-linejoin:round;"></line><line x1="258.11" y1="363.76" x2="258.03" y2="369.15" style="fill:none; stroke:#263238; stroke-linecap:round; stroke-linejoin:round;"></line><line x1="252.45" y1="363.8" x2="252.38" y2="367.98" style="fill:none; stroke:#263238; stroke-linecap:round; stroke-linejoin:round;"></line><line x1="244.99" y1="366.37" x2="244.94" y2="370.01" style="fill:none; stroke:#263238; stroke-linecap:round; stroke-linejoin:round;"></line><line x1="236.98" y1="370.29" x2="237.05" y2="365.7" style="fill:none; stroke:#263238; stroke-linecap:round; stroke-linejoin:round;"></line><line x1="213.38" y1="362.49" x2="213.34" y2="364.78" style="fill:none; stroke:#263238; stroke-linecap:round; stroke-linejoin:round;"></line><line x1="216.37" y1="369.01" x2="216.42" y2="366.31" style="fill:none; stroke:#263238; stroke-linecap:round; stroke-linejoin:round;"></line><line x1="228.63" y1="369.48" x2="228.68" y2="366.24" style="fill:none; stroke:#263238; stroke-linecap:round; stroke-linejoin:round;"></line></g><g><path d="M205.66,355.46l-.11,6.6c-.01,.81,11.8,1.66,26.4,1.9,14.59,.24,26.43-.23,26.44-1.04l.11-6.6-52.84-.86Z" style="fill:#fff; stroke:#263238; stroke-linecap:round; stroke-linejoin:round;"></path><path d="M258.5,356.32c-.01,.81-11.85,1.27-26.44,1.04-14.59-.24-26.41-1.09-26.4-1.9,.01-.81,11.85-1.27,26.44-1.04,14.59,.24,26.41,1.09,26.4,1.9Z" style="fill:#fff; stroke:#263238; stroke-linecap:round; stroke-linejoin:round;"></path><path d="M252.38,356.04c0,.52-9.1,.79-20.31,.61-11.21-.18-20.29-.75-20.28-1.27s9.1-.79,20.31-.61c11.21,.18,20.29,.75,20.28,1.27Z" style="fill:#fff; stroke:#263238; stroke-linecap:round; stroke-linejoin:round;"></path><line x1="255.86" y1="357.03" x2="255.77" y2="362.15" style="fill:none; stroke:#263238; stroke-linecap:round; stroke-linejoin:round;"></line><line x1="252.07" y1="357.51" x2="251.99" y2="362.9" style="fill:none; stroke:#263238; stroke-linecap:round; stroke-linejoin:round;"></line><line x1="246.41" y1="357.55" x2="246.34" y2="361.73" style="fill:none; stroke:#263238; stroke-linecap:round; stroke-linejoin:round;"></line><line x1="238.95" y1="360.13" x2="238.89" y2="363.76" style="fill:none; stroke:#263238; stroke-linecap:round; stroke-linejoin:round;"></line><line x1="230.94" y1="364.04" x2="231.01" y2="359.46" style="fill:none; stroke:#263238; stroke-linecap:round; stroke-linejoin:round;"></line><line x1="207.34" y1="356.24" x2="207.3" y2="358.53" style="fill:none; stroke:#263238; stroke-linecap:round; stroke-linejoin:round;"></line><line x1="210.33" y1="362.76" x2="210.38" y2="360.06" style="fill:none; stroke:#263238; stroke-linecap:round; stroke-linejoin:round;"></line><line x1="222.59" y1="363.23" x2="222.64" y2="359.99" style="fill:none; stroke:#263238; stroke-linecap:round; stroke-linejoin:round;"></line></g><g><path d="M202.66,349.2l-.11,6.6c-.01,.81,11.8,1.66,26.4,1.9,14.59,.24,26.43-.23,26.44-1.04l.11-6.6-52.84-.86Z" style="fill:#fff; stroke:#263238; stroke-linecap:round; stroke-linejoin:round;"></path><path d="M255.5,350.07c-.01,.81-11.85,1.27-26.44,1.04-14.59-.24-26.41-1.09-26.4-1.9,.01-.81,11.85-1.27,26.44-1.04,14.59,.24,26.41,1.09,26.4,1.9Z" style="fill:#fff; stroke:#263238; stroke-linecap:round; stroke-linejoin:round;"></path><path d="M249.38,349.78c0,.52-9.1,.79-20.31,.61-11.21-.18-20.29-.75-20.28-1.27,0-.52,9.1-.79,20.31-.61,11.21,.18,20.29,.75,20.28,1.27Z" style="fill:#fff; stroke:#263238; stroke-linecap:round; stroke-linejoin:round;"></path><line x1="252.85" y1="350.78" x2="252.77" y2="355.9" style="fill:none; stroke:#263238; stroke-linecap:round; stroke-linejoin:round;"></line><line x1="249.07" y1="351.25" x2="248.98" y2="356.64" style="fill:none; stroke:#263238; stroke-linecap:round; stroke-linejoin:round;"></line><line x1="243.41" y1="351.3" x2="243.34" y2="355.47" style="fill:none; stroke:#263238; stroke-linecap:round; stroke-linejoin:round;"></line><line x1="235.95" y1="353.87" x2="235.89" y2="357.51" style="fill:none; stroke:#263238; stroke-linecap:round; stroke-linejoin:round;"></line><line x1="227.94" y1="357.78" x2="228.01" y2="353.2" style="fill:none; stroke:#263238; stroke-linecap:round; stroke-linejoin:round;"></line><line x1="204.34" y1="349.98" x2="204.3" y2="352.27" style="fill:none; stroke:#263238; stroke-linecap:round; stroke-linejoin:round;"></line><line x1="207.33" y1="356.5" x2="207.37" y2="353.81" style="fill:none; stroke:#263238; stroke-linecap:round; stroke-linejoin:round;"></line><line x1="219.59" y1="356.97" x2="219.64" y2="353.74" style="fill:none; stroke:#263238; stroke-linecap:round; stroke-linejoin:round;"></line></g></g><g><g><path d="M167.73,453.79l-.11,6.6c-.01,.81,11.8,1.66,26.4,1.9,14.59,.24,26.43-.23,26.44-1.04l.11-6.6-52.84-.86Z" style="fill:#fff; stroke:#263238; stroke-linecap:round; stroke-linejoin:round;"></path><path d="M220.57,454.65c-.01,.81-11.85,1.27-26.44,1.04-14.59-.24-26.41-1.09-26.4-1.9,.01-.81,11.85-1.27,26.44-1.04,14.59,.24,26.41,1.09,26.4,1.9Z" style="fill:#fff; stroke:#263238; stroke-linecap:round; stroke-linejoin:round;"></path><path d="M214.44,454.36c0,.52-9.1,.79-20.31,.61-11.21-.18-20.29-.75-20.28-1.27,0-.52,9.1-.79,20.31-.61,11.21,.18,20.29,.75,20.28,1.27Z" style="fill:#fff; stroke:#263238; stroke-linecap:round; stroke-linejoin:round;"></path><line x1="217.92" y1="455.36" x2="217.84" y2="460.48" style="fill:none; stroke:#263238; stroke-linecap:round; stroke-linejoin:round;"></line><line x1="214.14" y1="455.84" x2="214.05" y2="461.23" style="fill:none; stroke:#263238; stroke-linecap:round; stroke-linejoin:round;"></line><line x1="208.48" y1="455.88" x2="208.41" y2="460.06" style="fill:none; stroke:#263238; stroke-linecap:round; stroke-linejoin:round;"></line><line x1="201.02" y1="458.45" x2="200.96" y2="462.09" style="fill:none; stroke:#263238; stroke-linecap:round; stroke-linejoin:round;"></line><line x1="193" y1="462.37" x2="193.08" y2="457.78" style="fill:none; stroke:#263238; stroke-linecap:round; stroke-linejoin:round;"></line><line x1="169.4" y1="454.57" x2="169.36" y2="456.86" style="fill:none; stroke:#263238; stroke-linecap:round; stroke-linejoin:round;"></line><line x1="172.4" y1="461.09" x2="172.44" y2="458.39" style="fill:none; stroke:#263238; stroke-linecap:round; stroke-linejoin:round;"></line><line x1="184.66" y1="461.56" x2="184.71" y2="458.32" style="fill:none; stroke:#263238; stroke-linecap:round; stroke-linejoin:round;"></line></g><g><path d="M167.41,447l-.11,6.6c-.01,.81,11.8,1.66,26.4,1.9,14.59,.24,26.43-.23,26.44-1.04l.11-6.6-52.84-.86Z" style="fill:#fff; stroke:#263238; stroke-linecap:round; stroke-linejoin:round;"></path><path d="M220.25,447.87c-.01,.81-11.85,1.27-26.44,1.04-14.59-.24-26.41-1.09-26.4-1.9,.01-.81,11.85-1.27,26.44-1.04,14.59,.24,26.41,1.09,26.4,1.9Z" style="fill:#fff; stroke:#263238; stroke-linecap:round; stroke-linejoin:round;"></path><path d="M214.13,447.58c0,.52-9.1,.79-20.31,.61-11.21-.18-20.29-.75-20.28-1.27,0-.52,9.1-.79,20.31-.61,11.21,.18,20.29,.75,20.28,1.27Z" style="fill:#fff; stroke:#263238; stroke-linecap:round; stroke-linejoin:round;"></path><line x1="217.61" y1="448.58" x2="217.52" y2="453.7" style="fill:none; stroke:#263238; stroke-linecap:round; stroke-linejoin:round;"></line><line x1="213.82" y1="449.05" x2="213.74" y2="454.44" style="fill:none; stroke:#263238; stroke-linecap:round; stroke-linejoin:round;"></line><line x1="208.16" y1="449.1" x2="208.09" y2="453.27" style="fill:none; stroke:#263238; stroke-linecap:round; stroke-linejoin:round;"></line><line x1="200.71" y1="451.67" x2="200.65" y2="455.31" style="fill:none; stroke:#263238; stroke-linecap:round; stroke-linejoin:round;"></line><line x1="192.69" y1="455.58" x2="192.76" y2="451" style="fill:none; stroke:#263238; stroke-linecap:round; stroke-linejoin:round;"></line><line x1="169.09" y1="447.78" x2="169.05" y2="450.07" style="fill:none; stroke:#263238; stroke-linecap:round; stroke-linejoin:round;"></line><line x1="172.08" y1="454.3" x2="172.13" y2="451.61" style="fill:none; stroke:#263238; stroke-linecap:round; stroke-linejoin:round;"></line><line x1="184.34" y1="454.77" x2="184.4" y2="451.54" style="fill:none; stroke:#263238; stroke-linecap:round; stroke-linejoin:round;"></line></g><g><path d="M167.53,440.01l-.11,6.6c-.01,.81,11.8,1.66,26.4,1.9,14.59,.24,26.43-.23,26.44-1.04l.11-6.6-52.84-.86Z" style="fill:#fff; stroke:#263238; stroke-linecap:round; stroke-linejoin:round;"></path><path d="M220.37,440.88c-.01,.81-11.85,1.27-26.44,1.04-14.59-.24-26.41-1.09-26.4-1.9,.01-.81,11.85-1.27,26.44-1.04,14.59,.24,26.41,1.09,26.4,1.9Z" style="fill:#fff; stroke:#263238; stroke-linecap:round; stroke-linejoin:round;"></path><path d="M214.24,440.59c0,.52-9.1,.79-20.31,.61-11.21-.18-20.29-.75-20.28-1.27,0-.52,9.1-.79,20.31-.61,11.21,.18,20.29,.75,20.28,1.27Z" style="fill:#fff; stroke:#263238; stroke-linecap:round; stroke-linejoin:round;"></path><line x1="217.72" y1="441.59" x2="217.64" y2="446.71" style="fill:none; stroke:#263238; stroke-linecap:round; stroke-linejoin:round;"></line><line x1="213.94" y1="442.07" x2="213.85" y2="447.46" style="fill:none; stroke:#263238; stroke-linecap:round; stroke-linejoin:round;"></line><line x1="208.28" y1="442.11" x2="208.21" y2="446.29" style="fill:none; stroke:#263238; stroke-linecap:round; stroke-linejoin:round;"></line><line x1="200.82" y1="444.68" x2="200.76" y2="448.32" style="fill:none; stroke:#263238; stroke-linecap:round; stroke-linejoin:round;"></line><line x1="192.8" y1="448.59" x2="192.88" y2="444.01" style="fill:none; stroke:#263238; stroke-linecap:round; stroke-linejoin:round;"></line><line x1="169.2" y1="440.79" x2="169.17" y2="443.09" style="fill:none; stroke:#263238; stroke-linecap:round; stroke-linejoin:round;"></line><line x1="172.2" y1="447.31" x2="172.24" y2="444.62" style="fill:none; stroke:#263238; stroke-linecap:round; stroke-linejoin:round;"></line><line x1="184.46" y1="447.78" x2="184.51" y2="444.55" style="fill:none; stroke:#263238; stroke-linecap:round; stroke-linejoin:round;"></line></g><g><path d="M169.27,433.26l-.11,6.6c-.01,.81,11.8,1.66,26.4,1.9,14.59,.24,26.43-.23,26.44-1.04l.11-6.6-52.84-.86Z" style="fill:#fff; stroke:#263238; stroke-linecap:round; stroke-linejoin:round;"></path><path d="M222.11,434.12c-.01,.81-11.85,1.27-26.44,1.04-14.59-.24-26.41-1.09-26.4-1.9,.01-.81,11.85-1.27,26.44-1.04,14.59,.24,26.41,1.09,26.4,1.9Z" style="fill:#fff; stroke:#263238; stroke-linecap:round; stroke-linejoin:round;"></path><path d="M215.99,433.84c0,.52-9.1,.79-20.31,.61-11.21-.18-20.29-.75-20.28-1.27,0-.52,9.1-.79,20.31-.61,11.21,.18,20.29,.75,20.28,1.27Z" style="fill:#fff; stroke:#263238; stroke-linecap:round; stroke-linejoin:round;"></path><line x1="219.46" y1="434.83" x2="219.38" y2="439.96" style="fill:none; stroke:#263238; stroke-linecap:round; stroke-linejoin:round;"></line><line x1="215.68" y1="435.31" x2="215.59" y2="440.7" style="fill:none; stroke:#263238; stroke-linecap:round; stroke-linejoin:round;"></line><line x1="210.02" y1="435.35" x2="209.95" y2="439.53" style="fill:none; stroke:#263238; stroke-linecap:round; stroke-linejoin:round;"></line><line x1="202.56" y1="437.93" x2="202.5" y2="441.57" style="fill:none; stroke:#263238; stroke-linecap:round; stroke-linejoin:round;"></line><line x1="194.54" y1="441.84" x2="194.62" y2="437.26" style="fill:none; stroke:#263238; stroke-linecap:round; stroke-linejoin:round;"></line><line x1="170.94" y1="434.04" x2="170.91" y2="436.33" style="fill:none; stroke:#263238; stroke-linecap:round; stroke-linejoin:round;"></line><line x1="173.94" y1="440.56" x2="173.98" y2="437.87" style="fill:none; stroke:#263238; stroke-linecap:round; stroke-linejoin:round;"></line><line x1="186.2" y1="441.03" x2="186.25" y2="437.8" style="fill:none; stroke:#263238; stroke-linecap:round; stroke-linejoin:round;"></line></g><g><path d="M170.3,426.5l-.11,6.6c-.01,.81,11.8,1.66,26.4,1.9,14.59,.24,26.43-.23,26.44-1.04l.11-6.6-52.84-.86Z" style="fill:#fff; stroke:#263238; stroke-linecap:round; stroke-linejoin:round;"></path><path d="M223.14,427.36c-.01,.81-11.85,1.27-26.44,1.04-14.59-.24-26.41-1.09-26.4-1.9,.01-.81,11.85-1.27,26.44-1.04,14.59,.24,26.41,1.09,26.4,1.9Z" style="fill:#fff; stroke:#263238; stroke-linecap:round; stroke-linejoin:round;"></path><path d="M217.01,427.07c0,.52-9.1,.79-20.31,.61-11.21-.18-20.29-.75-20.28-1.27,0-.52,9.1-.79,20.31-.61,11.21,.18,20.29,.75,20.28,1.27Z" style="fill:#fff; stroke:#263238; stroke-linecap:round; stroke-linejoin:round;"></path><line x1="220.49" y1="428.07" x2="220.41" y2="433.19" style="fill:none; stroke:#263238; stroke-linecap:round; stroke-linejoin:round;"></line><line x1="216.71" y1="428.55" x2="216.62" y2="433.94" style="fill:none; stroke:#263238; stroke-linecap:round; stroke-linejoin:round;"></line><line x1="211.05" y1="428.59" x2="210.98" y2="432.77" style="fill:none; stroke:#263238; stroke-linecap:round; stroke-linejoin:round;"></line><line x1="203.59" y1="431.16" x2="203.53" y2="434.8" style="fill:none; stroke:#263238; stroke-linecap:round; stroke-linejoin:round;"></line><line x1="195.57" y1="435.08" x2="195.65" y2="430.49" style="fill:none; stroke:#263238; stroke-linecap:round; stroke-linejoin:round;"></line><line x1="171.97" y1="427.28" x2="171.93" y2="429.57" style="fill:none; stroke:#263238; stroke-linecap:round; stroke-linejoin:round;"></line><line x1="174.97" y1="433.8" x2="175.01" y2="431.1" style="fill:none; stroke:#263238; stroke-linecap:round; stroke-linejoin:round;"></line><line x1="187.23" y1="434.27" x2="187.28" y2="431.03" style="fill:none; stroke:#263238; stroke-linecap:round; stroke-linejoin:round;"></line></g><g><path d="M169.49,419.7l-.11,6.6c-.01,.81,11.8,1.66,26.4,1.9,14.59,.24,26.43-.23,26.44-1.04l.11-6.6-52.84-.86Z" style="fill:#fff; stroke:#263238; stroke-linecap:round; stroke-linejoin:round;"></path><path d="M222.33,420.56c-.01,.81-11.85,1.27-26.44,1.04-14.59-.24-26.41-1.09-26.4-1.9,.01-.81,11.85-1.27,26.44-1.04,14.59,.24,26.41,1.09,26.4,1.9Z" style="fill:#fff; stroke:#263238; stroke-linecap:round; stroke-linejoin:round;"></path><path d="M216.21,420.28c0,.52-9.1,.79-20.31,.61-11.21-.18-20.29-.75-20.28-1.27,0-.52,9.1-.79,20.31-.61,11.21,.18,20.29,.75,20.28,1.27Z" style="fill:#fff; stroke:#263238; stroke-linecap:round; stroke-linejoin:round;"></path><line x1="219.69" y1="421.27" x2="219.6" y2="426.39" style="fill:none; stroke:#263238; stroke-linecap:round; stroke-linejoin:round;"></line><line x1="215.9" y1="421.75" x2="215.81" y2="427.14" style="fill:none; stroke:#263238; stroke-linecap:round; stroke-linejoin:round;"></line><line x1="210.24" y1="421.79" x2="210.17" y2="425.97" style="fill:none; stroke:#263238; stroke-linecap:round; stroke-linejoin:round;"></line><line x1="202.78" y1="424.37" x2="202.72" y2="428.01" style="fill:none; stroke:#263238; stroke-linecap:round; stroke-linejoin:round;"></line><line x1="194.77" y1="428.28" x2="194.84" y2="423.7" style="fill:none; stroke:#263238; stroke-linecap:round; stroke-linejoin:round;"></line><line x1="171.17" y1="420.48" x2="171.13" y2="422.77" style="fill:none; stroke:#263238; stroke-linecap:round; stroke-linejoin:round;"></line><line x1="174.16" y1="427" x2="174.2" y2="424.3" style="fill:none; stroke:#263238; stroke-linecap:round; stroke-linejoin:round;"></line><line x1="186.42" y1="427.47" x2="186.47" y2="424.24" style="fill:none; stroke:#263238; stroke-linecap:round; stroke-linejoin:round;"></line></g><g><path d="M171.07,412.94l-.11,6.6c-.01,.81,11.8,1.66,26.4,1.9,14.59,.24,26.43-.23,26.44-1.04l.11-6.6-52.84-.86Z" style="fill:#fff; stroke:#263238; stroke-linecap:round; stroke-linejoin:round;"></path><path d="M223.91,413.81c-.01,.81-11.85,1.27-26.44,1.04-14.59-.24-26.41-1.09-26.4-1.9,.01-.81,11.85-1.27,26.44-1.04,14.59,.24,26.41,1.09,26.4,1.9Z" style="fill:#fff; stroke:#263238; stroke-linecap:round; stroke-linejoin:round;"></path><path d="M217.78,413.52c0,.52-9.1,.79-20.31,.61-11.21-.18-20.29-.75-20.28-1.27,0-.52,9.1-.79,20.31-.61,11.21,.18,20.29,.75,20.28,1.27Z" style="fill:#fff; stroke:#263238; stroke-linecap:round; stroke-linejoin:round;"></path><line x1="221.26" y1="414.52" x2="221.18" y2="419.64" style="fill:none; stroke:#263238; stroke-linecap:round; stroke-linejoin:round;"></line><line x1="217.48" y1="414.99" x2="217.39" y2="420.38" style="fill:none; stroke:#263238; stroke-linecap:round; stroke-linejoin:round;"></line><line x1="211.82" y1="415.04" x2="211.75" y2="419.21" style="fill:none; stroke:#263238; stroke-linecap:round; stroke-linejoin:round;"></line><line x1="204.36" y1="417.61" x2="204.3" y2="421.25" style="fill:none; stroke:#263238; stroke-linecap:round; stroke-linejoin:round;"></line><line x1="196.34" y1="421.52" x2="196.42" y2="416.94" style="fill:none; stroke:#263238; stroke-linecap:round; stroke-linejoin:round;"></line><line x1="172.74" y1="413.72" x2="172.71" y2="416.01" style="fill:none; stroke:#263238; stroke-linecap:round; stroke-linejoin:round;"></line><line x1="175.74" y1="420.24" x2="175.78" y2="417.55" style="fill:none; stroke:#263238; stroke-linecap:round; stroke-linejoin:round;"></line><line x1="188" y1="420.71" x2="188.05" y2="417.48" style="fill:none; stroke:#263238; stroke-linecap:round; stroke-linejoin:round;"></line></g><g><path d="M167.7,406.11l-.11,6.6c-.01,.81,11.8,1.66,26.4,1.9s26.43-.23,26.44-1.04l.11-6.6-52.84-.86Z" style="fill:#fff; stroke:#263238; stroke-linecap:round; stroke-linejoin:round;"></path><path d="M220.54,406.97c-.01,.81-11.85,1.27-26.44,1.04-14.59-.24-26.41-1.09-26.4-1.9,.01-.81,11.85-1.27,26.44-1.04,14.59,.24,26.41,1.09,26.4,1.9Z" style="fill:#fff; stroke:#263238; stroke-linecap:round; stroke-linejoin:round;"></path><path d="M214.41,406.68c0,.52-9.1,.79-20.31,.61-11.21-.18-20.29-.75-20.28-1.27,0-.52,9.1-.79,20.31-.61,11.21,.18,20.29,.75,20.28,1.27Z" style="fill:#fff; stroke:#263238; stroke-linecap:round; stroke-linejoin:round;"></path><line x1="217.89" y1="407.68" x2="217.81" y2="412.8" style="fill:none; stroke:#263238; stroke-linecap:round; stroke-linejoin:round;"></line><line x1="214.11" y1="408.16" x2="214.02" y2="413.55" style="fill:none; stroke:#263238; stroke-linecap:round; stroke-linejoin:round;"></line><line x1="208.45" y1="408.2" x2="208.38" y2="412.38" style="fill:none; stroke:#263238; stroke-linecap:round; stroke-linejoin:round;"></line><line x1="200.99" y1="410.77" x2="200.93" y2="414.41" style="fill:none; stroke:#263238; stroke-linecap:round; stroke-linejoin:round;"></line><line x1="192.97" y1="414.69" x2="193.05" y2="410.1" style="fill:none; stroke:#263238; stroke-linecap:round; stroke-linejoin:round;"></line><line x1="169.37" y1="406.89" x2="169.33" y2="409.18" style="fill:none; stroke:#263238; stroke-linecap:round; stroke-linejoin:round;"></line><line x1="172.37" y1="413.41" x2="172.41" y2="410.71" style="fill:none; stroke:#263238; stroke-linecap:round; stroke-linejoin:round;"></line><line x1="184.63" y1="413.88" x2="184.68" y2="410.64" style="fill:none; stroke:#263238; stroke-linecap:round; stroke-linejoin:round;"></line></g></g><g><path d="M255.21,433.78c-.26,15.97-13.42,28.71-29.39,28.45-15.97-.26-28.71-13.42-28.45-29.39,.26-15.97,13.42-28.71,29.39-28.45,15.97,.26,28.71,13.42,28.45,29.39Z" style="fill:#263238; stroke:#263238; stroke-linecap:round; stroke-linejoin:round;"></path><path d="M253.52,433.75c-.26,15.97-13.42,28.71-29.39,28.45-15.97-.26-28.71-13.42-28.45-29.39,.26-15.97,13.42-28.71,29.39-28.45,15.97,.26,28.71,13.42,28.45,29.39Z" style="fill:#fff; stroke:#263238; stroke-linecap:round; stroke-linejoin:round;"></path><circle cx="224.6" cy="433.28" r="25.08" transform="translate(-164.19 138.3) rotate(-25.41)" style="fill:#fff; stroke:#263238; stroke-linecap:round; stroke-linejoin:round;"></circle><path d="M231.47,453.7l-1.47-3.98c-2.81,.89-5.21,.76-7.2-.37-1.99-1.14-3.67-3.4-5.05-6.79l5.81-3.2c.54,1.38,1.08,2.46,1.61,3.24,.53,.78,1.07,1.28,1.63,1.5,.55,.22,1.13,.22,1.72,0,.75-.28,1.14-.71,1.18-1.31,.04-.59-.04-1.17-.25-1.73-.5-1.34-1.23-2.36-2.2-3.05-.97-.69-2.18-1.3-3.63-1.83l-3.76-1.39c-1.07-.43-2.08-.9-3.02-1.42-.94-.52-1.8-1.21-2.57-2.06-.77-.86-1.42-1.98-1.94-3.37-.94-2.55-.95-4.81-.03-6.8,.92-1.99,2.58-3.53,4.98-4.63l-1.41-3.82,2.05-.76,1.4,3.78c1.58-.5,2.96-.6,4.13-.32,1.17,.28,2.16,.8,2.97,1.55,.81,.75,1.49,1.61,2.05,2.58,.56,.97,1.01,1.89,1.37,2.76l-5.95,3.07c-.38-.96-.76-1.78-1.12-2.47-.36-.69-.76-1.17-1.18-1.46-.43-.28-.94-.3-1.55-.04-.67,.25-1.06,.71-1.17,1.39-.11,.68-.07,1.3,.14,1.87,.48,1.29,1.19,2.2,2.14,2.75,.95,.55,1.94,1.03,2.98,1.43l3.61,1.36c1.22,.49,2.38,1.07,3.49,1.72,1.11,.66,2.11,1.47,2.99,2.46,.88,.98,1.6,2.23,2.16,3.73,.53,1.42,.71,2.83,.56,4.23-.15,1.4-.64,2.67-1.47,3.81-.83,1.14-1.97,2.08-3.44,2.8l1.49,4.02-2.05,.76Z" style="fill:#263238; stroke:#263238; stroke-linecap:round; stroke-linejoin:round;"></path><path d="M230.73,453.69l-1.47-3.98c-2.81,.89-5.21,.76-7.2-.37-1.99-1.14-3.67-3.4-5.05-6.79l5.81-3.2c.54,1.38,1.08,2.46,1.61,3.24,.53,.78,1.07,1.28,1.63,1.5,.55,.22,1.13,.22,1.72,0,.75-.28,1.14-.71,1.18-1.31,.04-.59-.04-1.17-.25-1.73-.5-1.34-1.23-2.36-2.2-3.05-.97-.69-2.18-1.3-3.63-1.83l-3.76-1.39c-1.07-.43-2.08-.9-3.02-1.42-.94-.52-1.8-1.21-2.57-2.06-.77-.86-1.42-1.98-1.94-3.37-.94-2.55-.95-4.81-.03-6.8,.92-1.99,2.58-3.53,4.98-4.63l-1.41-3.82,2.05-.76,1.4,3.78c1.58-.5,2.96-.6,4.13-.32,1.17,.28,2.16,.8,2.97,1.55,.81,.75,1.49,1.61,2.05,2.58,.56,.97,1.01,1.89,1.37,2.76l-5.95,3.07c-.38-.96-.76-1.78-1.12-2.47-.36-.69-.76-1.17-1.18-1.46-.43-.28-.94-.3-1.55-.04-.67,.25-1.06,.71-1.17,1.39-.11,.68-.07,1.3,.14,1.87,.48,1.29,1.19,2.2,2.14,2.75,.95,.55,1.94,1.03,2.98,1.43l3.61,1.36c1.22,.49,2.38,1.07,3.49,1.72,1.11,.66,2.11,1.47,2.99,2.46,.88,.98,1.6,2.23,2.16,3.73,.53,1.42,.71,2.83,.56,4.23-.15,1.4-.64,2.67-1.47,3.81-.83,1.14-1.97,2.08-3.44,2.8l1.49,4.02-2.05,.76Z" style="fill:#fff; stroke:#263238; stroke-linecap:round; stroke-linejoin:round;"></path></g></g></g></g><g id="freepik--Character--inject-3"><g><path d="M406.7,159.94s-3.32-1.36-6.18,6.03c-2.87,7.39-1.21,10.86-2.72,13.88s-5.58,4.68-6.03,10.56c-.45,5.88,3.02,8.15,2.41,11.46-.6,3.32-5.13,.6-4.98,10.71,.15,10.11,56.41,5.13,56.41,5.13,0,0,1.81-7.54-.6-11.77-2.41-4.22-5.88-4.83-5.28-7.99,.6-3.17,3.62-3.92,2.41-11.16-1.21-7.24-6.34-7.99-8.9-13.73-2.56-5.73-2.41-12.37-10.86-15.23-12.66-4.29-15.69,2.11-15.69,2.11Z" style="fill:#263238; stroke:#263238; stroke-linecap:round; stroke-linejoin:round;"></path><g><path d="M403.4,454.45s-3.2,6.14-9.09,9.86-8.45,6.53-7.17,8.06c2.52,3.03,7.81,2.3,11.9,1.28,5.7-1.42,7.04-3.58,10.62-4.99,3.58-1.41,5.12,.64,5.76-3.07s.34-9.62,.34-9.62l-12.38-1.51Z" style="fill:#fff; stroke:#263238; stroke-linecap:round; stroke-linejoin:round;"></path><path d="M399.05,473.65c5.7-1.42,7.04-3.58,10.62-4.99,3.58-1.41,5.12,.64,5.76-3.07,.41-2.39,.44-5.69,.4-7.74-1.38,1.24-4.06,2.82-4.88,2.62-1.02-.26,.13-.64-.13-2.56-.26-1.92-.77-1.54-.77-1.54l-1.12-1.24-5.53-.68s-3.2,6.14-9.09,9.86c-5.89,3.71-8.45,6.53-7.17,8.06,2.52,3.03,7.81,2.3,11.9,1.28Z" style="fill:#fff; stroke:#263238; stroke-linecap:round; stroke-linejoin:round;"></path><path d="M393.92,473.1c-2.79,.1-5.41-.95-7.08-1.82-.05,.41,.05,.77,.3,1.08,2.52,3.03,7.81,2.3,11.9,1.28,5.7-1.42,7.04-3.58,10.62-4.99,3.58-1.41,5.12,.64,5.76-3.07,0,0-5.44,1.35-8.36,2.97-2.92,1.62-8.44,4.38-13.15,4.55Z" style="fill:#fff; stroke:#263238; stroke-linecap:round; stroke-linejoin:round;"></path></g><polygon points="389.41 354.88 403.12 449.27 416.24 449.66 413.15 354.88 389.41 354.88" style="fill:#263238; stroke:#263238; stroke-linecap:round; stroke-linejoin:round;"></polygon><polygon points="402.58 447.86 402.15 455.74 414.9 458.17 416.76 448 402.58 447.86" style="fill:#969696; stroke:#263238; stroke-linecap:round; stroke-linejoin:round;"></polygon><g><path d="M415.77,455.96s-1.69,8.01-5.06,11.81c-3.37,3.8-5.34,4.78-4.22,7.87s13.5,2.25,17.01-.28c3.51-2.53,4.22-8.72,4.22-11.81v-6.05l-11.95-1.55Z" style="fill:#fff; stroke:#263238; stroke-linecap:round; stroke-linejoin:round;"></path><path d="M427.72,459.66c-.82,1.54-1.69,3.19-1.69,3.19,0,0-1.83-6.19-5.62-6.19s-5.9,4.22-5.9,4.22l-.17,.03c-.84,2.37-2.05,5.08-3.63,6.86-3.37,3.8-5.34,4.78-4.22,7.87s13.5,2.25,17.01-.28c3.51-2.53,4.22-8.72,4.22-11.81v-3.89Z" style="fill:#fff; stroke:#263238; stroke-linecap:round; stroke-linejoin:round;"></path><path d="M426.04,469.88c-1.83,3.8-5.2,5.76-11.39,5.9-4.34,.1-7.16-.84-8.45-1.41,.03,.39,.13,.8,.3,1.27,1.12,3.09,13.5,2.25,17.01-.28,2.46-1.77,3.54-5.32,3.97-8.36-.43,.83-.92,1.8-1.44,2.88Z" style="fill:#fff; stroke:#263238; stroke-linecap:round; stroke-linejoin:round;"></path></g><path d="M410.62,354.71l4.05,96.95,14.07,1.93s3.47-39.32,3.66-50.69c.19-11.37-1.93-21.59-.96-26.79,.96-5.2,2.89-20.24,2.89-20.24l-23.71-1.16Z" style="fill:#263238; stroke:#263238; stroke-linecap:round; stroke-linejoin:round;"></path><polygon points="413.67 449.07 414.09 457.09 428.29 458.49 429.69 451.18 413.67 449.07" style="fill:#969696; stroke:#263238; stroke-linecap:round; stroke-linejoin:round;"></polygon><g><path d="M408.16,201.18s-22.54,10.05-23.86,11.7-13.54,39.13-13.7,42.1c-.17,2.97,1.16,7.1,1.98,7.93s15.02,1.16,15.02,1.16c0,0-6.93,18.66-9.74,34.01-2.81,15.36-2.97,58.94-2.97,58.94,0,0,15.85,2.97,31.21,1.82,15.36-1.16,32.53,3.47,32.53,3.47,0,0,5.61-50.19,2.15-64.06-3.47-13.87-8.26-29.55-6.77-34.51,1.49-4.95,6.11-13.7,6.11-13.7,0,0,1.98,11.72,2.48,12.38,.5,.66,15.85,6.93,15.85,6.93,0,0,.66-5.78-.17-13.21-.83-7.43-6.27-38.14-8.92-41.77-2.64-3.63-9.25-5.78-13.7-7.6-4.46-1.82-10.9-4.46-10.9-4.46l-16.59-1.13Z" style="fill:#407BFF; stroke:#263238; stroke-linecap:round; stroke-linejoin:round;"></path><path d="M390.97,225.95c.19-1.58,.45-3.11,.8-4.37" style="fill:none; stroke:#263238; stroke-linecap:round; stroke-linejoin:round;"></path><path d="M390.42,235.38s0-3.24,.3-6.89" style="fill:none; stroke:#263238; stroke-linecap:round; stroke-linejoin:round;"></path><polyline points="402.3 218.96 404.67 220.24 402.3 221.7" style="fill:none; stroke:#263238; stroke-linecap:round; stroke-linejoin:round;"></polyline><polyline points="428.98 214.39 427.34 220.42 422.95 222.07 425.15 225.54 411.99 250.95" style="fill:none; stroke:#263238; stroke-linecap:round; stroke-linejoin:round;"></polyline><path d="M405.18,338.08c-.12,11.56-.21,18.54-.21,18.54" style="fill:none; stroke:#263238; stroke-linecap:round; stroke-linejoin:round;"></path><path d="M409.58,269.91s-3.98,21.57-4.19,45.87c-.06,6.52-.11,12.49-.16,17.72" style="fill:none; stroke:#263238; stroke-linecap:round; stroke-linejoin:round;"></path></g><g><path d="M417.51,249.01s-.05,0-.07,0c-.73-.06-1.65-.35-2.75-.87-.43-.2-.62-.72-.41-1.15,.2-.43,.72-.62,1.15-.41,.88,.41,1.64,.67,2.15,.71,.48,.04,.83,.46,.79,.94-.04,.45-.42,.8-.86,.8Z" style="fill:#fff; stroke:#263238; stroke-linecap:round; stroke-linejoin:round;"></path><path d="M419.47,221.44c-1.6,2.23-3.16,4.72-4.71,7.44-3.51,6.17-5.89,12.91-5.13,14.43,.54,1.08,3.15,2.98,5.43,4.05" style="fill:none; stroke:#263238; stroke-linecap:round; stroke-linejoin:round; stroke-width:1.3px;"></path><path d="M410.01,246.83c-.99,0-1.77-.12-2.33-.35-.44-.18-.65-.69-.47-1.13,.18-.44,.69-.65,1.13-.47,.19,.08,.78,.26,2.11,.21,.45,0,.88,.36,.9,.83,.02,.48-.36,.88-.83,.9-.17,0-.34,0-.51,0Z" style="fill:#fff; stroke:#263238; stroke-linecap:round; stroke-linejoin:round;"></path><path d="M427.84,224.46c-.18,.38-.36,.78-.55,1.19-3.89,8.54-8.35,17.66-10.73,18.89-1.56,.81-4.08,1.34-6.07,1.41" style="fill:none; stroke:#263238; stroke-linecap:round; stroke-linejoin:round; stroke-width:1.3px;"></path><path d="M432.31,209.1c-3.16-10.14-10.14-10.32-10.26-10.33-.47-.04-.89,.31-.93,.79-.04,.48,.31,.9,.79,.94,.15,.01,3.76,.38,4.85,3.77,.91,2.85,1.61,6.14-1.67,9.26-2.12,2.02-4.25,4.51-6.31,7.4-.28,.39-.19,.93,.2,1.21,.15,.11,.33,.16,.5,.16,.27,0,.54-.13,.71-.36,2-2.8,4.05-5.21,6.09-7.15,3.47-3.3,3.22-6.93,2.61-9.41,.67,1.09,1.3,2.45,1.75,4.16,1.26,4.76,.46,6.37-1.9,11.12-.5,1-1.05,2.12-1.67,3.42-.2,.43-.02,.95,.42,1.15,.12,.06,.24,.08,.37,.08,.33,0,.64-.18,.79-.5,.61-1.29,1.16-2.4,1.65-3.39,2.37-4.77,3.69-7.01,2.03-12.34Z" style="fill:#b0b0b0; stroke:#263238; stroke-linecap:round; stroke-linejoin:round;"></path></g><path d="M403.18,233.38c-.12-.3-3.05-7.33-3.81-15.62-.81-8.8,2.66-16.54,8.42-18.83,5.76-2.29,8.78-1.09,8.91-1.04l-.66,1.6s-2.57-.95-7.61,1.05c-5.06,2.01-8.08,9.02-7.34,17.06,.74,8.02,3.65,15.04,3.68,15.11l-1.6,.67Z" style="fill:#b0b0b0; stroke:#263238; stroke-linecap:round; stroke-linejoin:round;"></path><g><path d="M407.98,235.49c0,1.34-1.74,2.42-3.89,2.42s-3.89-1.08-3.89-2.42,1.74-2.42,3.89-2.42,3.89,1.08,3.89,2.42Z" style="fill:#fff; stroke:#263238; stroke-linecap:round; stroke-linejoin:round;"></path><path d="M406.6,234.34c0,.9-1.17,1.63-2.62,1.63s-2.62-.73-2.62-1.63,1.17-1.63,2.62-1.63,2.62,.73,2.62,1.63Z" style="fill:#fff; stroke:#263238; stroke-linecap:round; stroke-linejoin:round;"></path><path d="M406.6,233.04c0,.9-1.17,1.63-2.62,1.63s-2.62-.73-2.62-1.63,1.17-1.63,2.62-1.63,2.62,.73,2.62,1.63Z" style="fill:#fff; stroke:#263238; stroke-linecap:round; stroke-linejoin:round;"></path></g><g><path d="M372.5,255.46s-2.41,3.62-3.01,6.99c-.6,3.37,1.69,9.28,2.29,10.48,.6,1.21,3.49,5.42,4.94,5.54,1.45,.12,4.82-2.77,6.51-5.3,1.69-2.53-1.21-16.15-3.01-17.47-1.81-1.33-5.66-.84-5.66-.84" style="fill:#407BFF; stroke:#263238; stroke-linecap:round; stroke-linejoin:round;"></path><path d="M378.53,257.38s-5.78,1.69-6.99,5.78c-1.21,4.1-.12,6.87-.12,6.87" style="fill:none; stroke:#263238; stroke-linecap:round; stroke-linejoin:round;"></path></g><g><path d="M408.16,194.75s.63,4.79,0,6.43c-.63,1.64-3.33,2.45-2.82,6.69s7.58,21.06,7.58,21.06c0,0,11.69-19.78,12.59-23.24s-.77-2.83-1.8-4.75-.77-6.55-.77-6.55l-14.77,.37Z" style="fill:#fff; stroke:#263238; stroke-linecap:round; stroke-linejoin:round;"></path><line x1="408.44" y1="197.45" x2="408.53" y2="207.42" style="fill:none; stroke:#263238; stroke-linecap:round; stroke-linejoin:round;"></line></g><g><path d="M402.54,171.99s.32,17.18,1.3,19.88c.97,2.7,8.16,8.22,10.75,8.55,3.21,.4,5.44-1.65,7.77-3.55,2.16-1.76,5.37-4.31,5.45-7.37,.11-3.89-1.08-15.45-1.08-15.45,0,0-7.56-2.38-11.56-4.11-4-1.73-5.19-3.24-5.19-3.24,0,0-5.08,4.97-7.45,5.29Z" style="fill:#fff; stroke:#263238; stroke-linecap:round; stroke-linejoin:round;"></path><path d="M411.27,181.24c0,1.09-.51,1.98-1.15,1.98s-1.15-.89-1.15-1.98,.51-1.98,1.15-1.98,1.15,.89,1.15,1.98Z" style="fill:#263238;"></path><path d="M421.19,181.35c0,1.09-.51,1.98-1.15,1.98s-1.15-.89-1.15-1.98,.51-1.98,1.15-1.98,1.15,.89,1.15,1.98Z" style="fill:#263238;"></path><path d="M415.34,188.65s1.25,0,2.5-1.67" style="fill:none; stroke:#263238; stroke-linecap:round; stroke-linejoin:round;"></path><path d="M410.13,190.11s5.84,3.76,10.64-.63" style="fill:none; stroke:#263238; stroke-linecap:round; stroke-linejoin:round;"></path><path d="M406.58,177.17s1.46-2.92,6.26-.21" style="fill:none; stroke:#263238; stroke-linecap:round; stroke-linejoin:round;"></path><path d="M417.22,176.97s3.55-2.92,6.26,1.25" style="fill:none; stroke:#263238; stroke-linecap:round; stroke-linejoin:round;"></path></g><path d="M427.6,180.1s.76-2.48,1.73-2.48,1.4,1.73,.86,3.56c-.54,1.84-2.48,4.75-2.48,4.75l-.11-5.83Z" style="fill:#fff; stroke:#263238; stroke-linecap:round; stroke-linejoin:round;"></path><path d="M402.54,178.37s-2.59-.11-2.05,2.38c.54,2.48,2.38,4.65,2.38,4.65l-.32-7.02Z" style="fill:#fff; stroke:#263238; stroke-linecap:round; stroke-linejoin:round;"></path><path d="M442.59,215.02s-4.79,10.57-4.79,14.36,1.6,18.44,1.6,18.44" style="fill:none; stroke:#263238; stroke-linecap:round; stroke-linejoin:round;"></path><path d="M442.15,239.69c-.43,1.65-.75,3.07-.89,4.06" style="fill:none; stroke:#263238; stroke-linecap:round; stroke-linejoin:round;"></path><path d="M447.37,222.95s-2.79,8.13-4.62,14.56" style="fill:none; stroke:#263238; stroke-linecap:round; stroke-linejoin:round;"></path><g><path d="M442.59,262.41s-26.42-3.14-27.24-3.47c-.83-.33-4.95-6.77-6.77-7.43s-8.26-1.49-8.26-1.49c0,0,10.9,15.52,12.38,16.18,1.49,.66,7.76,1.98,7.76,1.98,0,0,16.84,6.27,20.64,6.77l3.8,.5-2.31-13.04Z" style="fill:#fff; stroke:#263238; stroke-linecap:round; stroke-linejoin:round;"></path><path d="M448.86,261.42l-9.08,.17,7.59,19.48s7.93-4.46,10.24-7.26c2.31-2.81,1.32-9.58,.66-11.72" style="fill:#407BFF; stroke:#263238; stroke-linecap:round; stroke-linejoin:round;"></path><line x1="445.56" y1="261.58" x2="451.67" y2="277.27" style="fill:none; stroke:#263238; stroke-linecap:round; stroke-linejoin:round;"></line></g><path d="M445.39,260.09s5.94-1.65,9.91,.33" style="fill:none; stroke:#263238; stroke-linecap:round; stroke-linejoin:round;"></path><path d="M448.86,255.47s-3.96,2.15-5.12,3.8" style="fill:none; stroke:#263238; stroke-linecap:round; stroke-linejoin:round;"></path><g><polygon points="354.67 229.43 381.3 261.84 414.68 268.11 387.81 232.8 354.67 229.43" style="fill:#263238; stroke:#263238; stroke-linecap:round; stroke-linejoin:round;"></polygon><polygon points="362.62 230.39 365.03 232.68 379.73 234.13 377.68 231.72 362.62 230.39" style="fill:#fff; stroke:#263238; stroke-linecap:round; stroke-linejoin:round;"></polygon></g><g><path d="M385.25,255.74s-.26-5.14,.13-6.85,4.26-3.53,5.05-4.19,.92-1.84,1.58-.66,.4,2.11-.4,3.03c-.79,.92-2.52,2.07-2.52,2.07l7.47-1.7s4.35-4.48,4.87-5.14c.53-.66,1.58,.4,1.32,1.32s-.4,1.45-.4,1.45c0,0,1.84,4.21,1.84,6.32s.53,2.9-1.58,4.61-8.96,3.29-10.54,5.93c-1.58,2.63-4.21,9.35-7.64,11.59-3.42,2.24-6.72,3.69-8.3,2.37s-3.82-4.61-2.24-9.88,6.18-6.22,8.43-6.98c2.31-.78,2.9-3.29,2.9-3.29Z" style="fill:#fff; stroke:#263238; stroke-linecap:round; stroke-linejoin:round;"></path><path d="M402.37,245.07s-2.77,5.93-3.69,6.32-3.47,1.53-3.47,1.53" style="fill:none; stroke:#263238; stroke-linecap:round; stroke-linejoin:round;"></path><path d="M402.99,247.03c0-.33,0,3.67-.67,5-.67,1.33-4.33,2.89-4.33,2.89" style="fill:none; stroke:#263238; stroke-linecap:round; stroke-linejoin:round;"></path><path d="M404.21,251.39s-1,2.64-1.56,3.3c-.56,.67-2.56,1.33-2.56,1.33" style="fill:none; stroke:#263238; stroke-linecap:round; stroke-linejoin:round;"></path></g></g></g><g id="freepik--Shield--inject-3"><g><g><path d="M131.1,241.06c-15.98,14.9-56.89,29.94-104.58,61.84,0,0,2.98,107.82,104.58,166.76V241.06Z" style="fill:#407BFF; stroke:#263238; stroke-linecap:round; stroke-linejoin:round;"></path><path d="M131.1,241.06c15.98,14.9,56.89,29.94,104.58,61.84,0,0-2.98,107.82-104.58,166.76V241.06Z" style="fill:#263238; stroke:#263238; stroke-linecap:round; stroke-linejoin:round;"></path><path d="M131.1,250.23c-19.29,13.39-52.72,26.15-96.91,55.72,0,0,2.76,99.91,96.91,154.53,94.15-54.61,96.91-154.53,96.91-154.53-44.2-29.57-77.47-42.33-96.91-55.72Z" style="fill:#407BFF; stroke:#263238; stroke-linecap:round; stroke-linejoin:round;"></path><path d="M65.32,398.01c14.33,22.29,35.25,44.76,65.78,62.47,50.78-29.46,74.97-72.08,86.48-105.11-70.8-24.12-125.08,15.34-152.26,42.64Z" style="fill:#263238; stroke:#263238; stroke-linecap:round; stroke-linejoin:round;"></path></g><polygon points="183.77 331.78 146.9 331.78 146.9 294.92 115.31 294.92 115.31 331.78 78.44 331.78 78.44 363.38 115.31 363.38 115.31 400.25 146.9 400.25 146.9 363.38 183.77 363.38 183.77 331.78" style="fill:#fff; stroke:#263238; stroke-linecap:round; stroke-linejoin:round;"></polygon><path d="M183.77,348.27c-27.46-2.16-51.66,4.78-71.8,15.11h3.34v36.87h31.6v-36.87h36.87v-15.11Z" style="fill:#e0e0e0;"></path><polygon points="183.77 331.78 146.9 331.78 146.9 294.92 115.31 294.92 115.31 331.78 78.44 331.78 78.44 363.38 115.31 363.38 115.31 400.25 146.9 400.25 146.9 363.38 183.77 363.38 183.77 331.78" style="fill:none; stroke:#263238; stroke-linecap:round; stroke-linejoin:round;"></polygon></g></g><g id="freepik--Text--inject-3"><g><g><path d="M203.7,135.79v-23.32h5.15v9.44h3.6v-9.44h5.18v23.32h-5.18v-10.19h-3.6v10.19h-5.15Z" style="fill:#263238;"></path><path d="M221.18,135.79v-23.32h10.48v3.51h-5.33v5.79h4.06v3.57h-4.06v6.97h5.38v3.48h-10.54Z" style="fill:#263238;"></path><path d="M232.93,135.79l4.41-23.32h5.87l4.35,23.32h-4.75l-.78-4.92h-3.43l-.81,4.92h-4.87Zm6.13-8h2.48l-1.24-9.1-1.24,9.1Z" style="fill:#263238;"></path><path d="M249.69,135.79v-23.32h5.15v19.84h5.36v3.48h-10.51Z" style="fill:#263238;"></path><path d="M262.93,135.79v-19.49h-3.51v-3.83h12.18v3.83h-3.48v19.49h-5.18Z" style="fill:#263238;"></path><path d="M273.73,135.79v-23.32h5.15v9.44h3.6v-9.44h5.18v23.32h-5.18v-10.19h-3.6v10.19h-5.15Z" style="fill:#263238;"></path></g><g><path d="M179.51,167.15v-23.32h5.15v23.32h-5.15Z" style="fill:#263238;"></path><path d="M188.15,167.15v-23.32h3.63l4.78,11.23v-11.23h4.26v23.32h-3.48l-4.78-12.09v12.09h-4.41Z" style="fill:#263238;"></path><path d="M210.5,167.49c-1.46,0-2.68-.26-3.66-.78-.98-.52-1.72-1.32-2.22-2.4-.5-1.08-.78-2.49-.83-4.22l4.4-.66c.02,1,.11,1.8,.27,2.42s.39,1.06,.69,1.32c.3,.27,.66,.4,1.08,.4,.54,0,.89-.18,1.05-.55,.16-.36,.24-.75,.24-1.15,0-.96-.23-1.77-.69-2.43-.46-.66-1.09-1.33-1.87-2l-2.02-1.76c-.88-.75-1.63-1.6-2.23-2.55-.6-.95-.91-2.13-.91-3.53,0-1.98,.59-3.49,1.76-4.54,1.17-1.05,2.76-1.57,4.78-1.57,1.25,0,2.25,.21,3.01,.63,.76,.42,1.33,.97,1.73,1.66,.39,.68,.66,1.4,.81,2.16,.14,.76,.22,1.48,.24,2.17l-4.43,.55c-.02-.69-.06-1.29-.13-1.8-.07-.51-.21-.9-.42-1.18-.21-.28-.54-.42-.98-.42-.48,0-.83,.2-1.05,.6-.22,.4-.33,.81-.33,1.21,0,.86,.21,1.57,.62,2.12,.41,.55,.95,1.12,1.63,1.71l1.93,1.7c1.02,.86,1.88,1.84,2.58,2.94,.7,1.09,1.05,2.45,1.05,4.06,0,1.09-.25,2.09-.75,2.98-.5,.89-1.21,1.6-2.12,2.12-.91,.52-1.99,.78-3.24,.78Z" style="fill:#263238;"></path><path d="M225.84,167.49c-1.78,0-3.18-.29-4.19-.88-1.01-.58-1.71-1.44-2.12-2.56-.4-1.12-.6-2.5-.6-4.13v-16.1h5.1v16.87c0,.48,.04,.96,.12,1.44,.08,.48,.24,.87,.5,1.18,.26,.31,.66,.46,1.19,.46s.96-.15,1.21-.46c.25-.31,.41-.7,.47-1.18,.07-.48,.1-.96,.1-1.44v-16.87h5.13v16.1c0,1.63-.21,3.01-.62,4.13-.41,1.12-1.12,1.98-2.12,2.56-1,.59-2.39,.88-4.18,.88Z" style="fill:#263238;"></path><path d="M236.04,167.15v-23.32h6.42c1.57,0,2.94,.17,4.09,.52,1.15,.35,2.05,.96,2.69,1.86,.64,.89,.96,2.16,.96,3.79,0,.96-.08,1.81-.23,2.56s-.44,1.4-.85,1.94c-.41,.55-1,1-1.77,1.37l3.2,11.29h-5.33l-2.56-10.45h-1.47v10.45h-5.15Zm5.15-13.42h1.44c.73,0,1.3-.13,1.7-.39,.4-.26,.69-.63,.85-1.12,.16-.49,.25-1.08,.25-1.77,0-1-.18-1.78-.55-2.33-.37-.56-1.04-.83-2.02-.83h-1.67v6.45Z" style="fill:#263238;"></path><path d="M252.19,167.15l4.41-23.32h5.87l4.35,23.32h-4.75l-.78-4.92h-3.43l-.81,4.92h-4.87Zm6.13-8h2.48l-1.24-9.1-1.24,9.1Z" style="fill:#263238;"></path><path d="M268.95,167.15v-23.32h3.63l4.78,11.23v-11.23h4.26v23.32h-3.48l-4.78-12.09v12.09h-4.4Z" style="fill:#263238;"></path><path d="M291.78,167.49c-1.77,0-3.16-.32-4.19-.96-1.03-.64-1.75-1.55-2.17-2.71-.42-1.16-.63-2.53-.63-4.1v-8.41c0-1.61,.21-3,.63-4.16,.42-1.16,1.15-2.06,2.17-2.69,1.03-.63,2.42-.95,4.19-.95s3.08,.28,4.05,.85c.97,.57,1.66,1.36,2.06,2.38,.4,1.02,.6,2.19,.6,3.51v2.02h-5.04v-2.33c0-.46-.02-.9-.07-1.32-.05-.42-.19-.77-.42-1.05-.23-.28-.62-.42-1.18-.42s-.94,.14-1.19,.43c-.26,.29-.42,.65-.49,1.08-.07,.43-.1,.89-.1,1.37v10.97c0,.52,.04,.99,.13,1.43,.09,.43,.26,.78,.52,1.04,.26,.26,.64,.39,1.14,.39,.54,0,.92-.14,1.15-.42,.23-.28,.37-.64,.43-1.08,.06-.44,.09-.89,.09-1.35v-2.45h5.04v2.02c0,1.32-.2,2.51-.59,3.56-.39,1.05-1.08,1.87-2.04,2.48-.97,.6-2.33,.91-4.07,.91Z" style="fill:#263238;"></path><path d="M301.31,167.15v-23.32h10.48v3.51h-5.33v5.79h4.06v3.57h-4.06v6.97h5.39v3.48h-10.54Z" style="fill:#263238;"></path></g></g></g></svg>
